<svg version="1.1" id="Layer_1" xmlns="http://www.w3.org/2000/svg" xmlns:xlink="http://www.w3.org/1999/xlink" x="0px" y="0px"
	 width="100%" viewBox="0 0 500 500" enable-background="new 0 0 500 500" xml:space="preserve">
<path fill="#000000" opacity="1.000000" stroke="none" 
	d="
M284.000000,501.000000 
	C189.333359,501.000000 95.166710,501.000000 1.000051,501.000000 
	C1.000034,334.333405 1.000034,167.666794 1.000017,1.000140 
	C167.666565,1.000093 334.333130,1.000093 500.999756,1.000047 
	C500.999847,167.666519 500.999847,334.333038 500.999939,500.999786 
	C428.833344,501.000000 356.666656,501.000000 284.000000,501.000000 
M85.100983,283.511353 
	C85.401878,283.693329 85.702774,283.875305 86.004112,283.991180 
	C86.004112,283.991180 85.938339,283.997894 86.168365,284.466095 
	C86.447639,284.665741 86.726921,284.865387 87.009834,284.997406 
	C87.009834,284.997406 86.942108,284.998138 87.101418,285.451721 
	C87.286148,285.775452 87.560471,285.897247 88.547501,286.119263 
	C92.990372,290.745361 97.433235,295.371460 102.144875,300.456085 
	C102.431793,300.655396 102.718719,300.854736 103.009933,300.990967 
	C103.009933,300.990967 102.946999,300.997223 103.104195,301.514343 
	C103.401825,301.699310 103.699463,301.884308 103.998177,302.000397 
	C103.998177,302.000397 103.929390,302.003510 104.098564,302.519531 
	C104.399345,302.702393 104.700127,302.885254 105.003799,302.999054 
	C105.003799,302.999054 104.934708,302.998932 105.131454,303.493958 
	C105.423470,303.682648 105.715477,303.871338 106.009338,303.991425 
	C106.009338,303.991425 105.940697,303.991943 106.154282,304.475647 
	C106.438614,304.674500 106.722939,304.873352 107.004684,304.993347 
	C107.004684,304.993347 106.925842,304.995575 107.098892,305.510620 
	C107.398697,305.695557 107.698502,305.880493 107.996758,305.997620 
	C107.996758,305.997620 107.929352,306.005432 108.095589,306.518677 
	C108.395660,306.696503 108.695732,306.874298 109.006783,306.995026 
	C109.006783,306.995026 108.949310,307.003815 109.137222,307.492615 
	C109.423683,307.678528 109.710144,307.864410 110.004631,307.992981 
	C110.004631,307.992981 109.947998,308.005005 110.101234,308.520691 
	C110.398605,308.702087 110.695976,308.883453 111.002434,309.001038 
	C111.002434,309.001038 110.938095,309.004639 111.103920,309.520447 
	C111.402122,309.707581 111.700317,309.894714 112.002174,310.002289 
	C112.002174,310.002289 111.922592,309.998444 112.102127,310.513275 
	C112.402199,310.702209 112.702263,310.891144 113.000443,310.999146 
	C113.000443,310.999146 112.919525,311.000885 113.123672,311.495087 
	C113.417755,311.682190 113.711838,311.869293 114.005981,311.990112 
	C114.005981,311.990112 113.940041,311.996613 114.133987,312.488586 
	C114.422310,312.678223 114.710632,312.867859 115.004936,312.994629 
	C115.004936,312.994629 114.942123,313.001434 115.101974,313.520294 
	C115.400597,313.707672 115.699211,313.895020 116.003250,314.004272 
	C116.003250,314.004272 115.925102,313.998993 116.105629,314.512451 
	C116.405746,314.699890 116.705864,314.887360 117.000740,314.994049 
	C117.000740,314.994049 116.919922,314.998993 117.124084,315.490814 
	C117.418365,315.673553 117.712646,315.856293 118.012802,315.984558 
	C118.012802,315.984558 117.958778,315.993805 118.171822,316.465149 
	C118.449005,316.661499 118.726189,316.857849 119.009933,316.992065 
	C119.009933,316.992065 118.947670,316.997437 119.104767,317.516479 
	C119.402229,317.705200 119.699699,317.893921 120.001991,318.003571 
	C120.001991,318.003571 119.922935,317.998932 120.104042,318.512268 
	C120.402977,318.702271 120.701912,318.892242 120.997749,318.999176 
	C120.997749,318.999176 120.914680,319.002441 121.098259,319.512970 
	C121.398239,319.697144 121.698219,319.881317 121.995934,319.997559 
	C121.995934,319.997559 121.928474,320.005890 122.096245,320.522614 
	C122.396095,320.708008 122.695953,320.893402 123.001663,321.005615 
	C123.001663,321.005615 122.928497,320.999969 123.102974,321.513458 
	C123.402298,321.698730 123.701614,321.884033 123.994164,321.997894 
	C123.994164,321.997894 123.922783,322.004852 124.093681,322.520142 
	C124.394165,322.703217 124.694649,322.886292 125.001266,323.002716 
	C125.001266,323.002716 124.934387,323.004913 125.101913,323.509491 
	C125.399734,323.678589 125.697556,323.847687 126.001358,323.996552 
	C126.001358,323.996552 125.981483,324.004791 126.211090,324.440918 
	C126.414253,324.712830 126.675743,324.905670 127.004005,324.998383 
	C127.004005,324.998383 126.982620,325.004608 127.119217,325.519806 
	C127.411583,325.704956 127.703957,325.890106 127.996193,326.001465 
	C127.996193,326.001465 127.922379,326.001801 128.096375,326.519592 
	C128.397034,326.708313 128.697678,326.897034 129.001755,327.004547 
	C129.001755,327.004547 128.920502,327.001343 129.104538,327.511810 
	C129.405396,327.694885 129.706253,327.877960 130.003052,327.991119 
	C130.003052,327.991119 129.933151,327.995575 130.163544,328.466217 
	C130.444244,328.666107 130.724945,328.865997 131.008423,328.996185 
	C131.008423,328.996185 130.938721,328.994324 131.106277,329.510468 
	C131.406387,329.693939 131.706512,329.877380 132.003891,329.991302 
	C132.003891,329.991302 131.934418,329.995178 132.164032,330.466095 
	C132.444687,330.665955 132.725357,330.865784 133.009354,330.995880 
	C133.009354,330.995880 132.939575,330.993195 133.105164,331.509857 
	C133.403595,331.696655 133.702026,331.883453 133.994537,331.998199 
	C133.994537,331.998199 133.922531,332.004364 134.094116,332.521057 
	C134.394836,332.706329 134.695557,332.891602 135.001770,333.005188 
	C135.001770,333.005188 134.930084,332.999847 135.102097,333.512451 
	C135.399811,333.698608 135.697525,333.884735 135.993408,334.001740 
	C135.993408,334.001740 135.924469,334.007538 136.098511,334.523193 
	C136.398544,334.710358 136.698563,334.897491 137.001938,335.004333 
	C137.001938,335.004333 136.921616,335.001190 137.105057,335.511566 
	C137.405731,335.694519 137.706390,335.877502 138.003143,335.990814 
	C138.003143,335.990814 137.933563,335.995697 138.161728,336.463043 
	C138.441650,336.658447 138.721558,336.853821 139.006775,336.990570 
	C139.006775,336.990570 138.949020,337.002106 139.100662,337.517578 
	C139.399643,337.693359 139.698624,337.869141 140.009415,337.992126 
	C140.009415,337.992126 139.956009,338.000641 140.169830,338.467194 
	C140.446457,338.659241 140.723083,338.851288 141.007935,338.990356 
	C141.007935,338.990356 140.955719,339.002563 141.104263,339.522461 
	C141.402054,339.707672 141.699844,339.892914 142.000092,340.006622 
	C142.000092,340.006622 141.928574,340.004364 142.099701,340.452332 
	C142.288437,340.771698 142.563690,340.890442 143.533432,341.181183 
	C146.006653,343.787048 148.479889,346.392883 151.110229,349.513214 
	C151.406479,349.697815 151.702728,349.882416 151.996872,349.997803 
	C151.996872,349.997803 151.927872,350.003418 152.096512,350.520996 
	C152.396896,350.706879 152.697266,350.892731 153.004059,351.004547 
	C153.004059,351.004547 152.929993,350.997986 153.106918,351.510223 
	C153.405548,351.696686 153.704178,351.883118 153.995346,351.995605 
	C153.995346,351.995605 153.921356,352.002869 154.094162,352.520020 
	C154.394928,352.706512 154.695694,352.893005 155.002731,353.004700 
	C155.002731,353.004700 154.927933,352.998566 155.104202,353.511658 
	C155.403595,353.697296 155.702972,353.882904 155.996979,353.996521 
	C155.996979,353.996521 155.924942,354.001678 156.104294,354.534790 
	C156.405502,354.747986 156.706711,354.961151 157.193512,355.565125 
	C157.379044,355.808563 157.623642,355.949402 158.190704,356.422363 
	C158.460007,356.622131 158.729309,356.821899 159.006744,356.997314 
	C159.006744,356.997314 158.981705,357.002075 159.118988,357.516937 
	C159.411957,357.700165 159.704910,357.883392 159.997314,357.998077 
	C159.997314,357.998077 159.928970,358.003418 160.096832,358.521149 
	C160.396988,358.707397 160.697144,358.893677 161.003922,359.004669 
	C161.003922,359.004669 160.928635,358.997925 161.106598,359.512360 
	C161.405380,359.702759 161.704163,359.893188 161.999771,359.997253 
	C161.999771,359.997253 161.913406,360.000244 162.098770,360.511658 
	C162.399460,360.696625 162.700150,360.881561 162.996384,360.996948 
	C162.996384,360.996948 162.927017,361.003632 163.095886,361.520081 
	C163.396317,361.704041 163.696762,361.888031 164.002396,362.002838 
	C164.002396,362.002838 163.933090,362.000916 164.105438,362.514374 
	C164.405273,362.697510 164.705124,362.880646 165.002625,362.993835 
	C165.002625,362.993835 164.932770,362.997070 165.133408,363.490356 
	C165.423508,363.682617 165.713608,363.874847 166.006027,363.997223 
	C166.006027,363.997223 165.936096,363.995758 166.104309,364.510864 
	C166.402985,364.696259 166.701660,364.881683 166.996231,364.997528 
	C166.996231,364.997528 166.926849,365.004181 167.095963,365.518158 
	C167.397766,365.694580 167.699585,365.871033 168.010666,365.990265 
	C168.010666,365.990265 167.953140,365.997192 168.172287,366.469452 
	C168.450653,366.669006 168.729019,366.868591 169.004501,367.004150 
	C169.004501,367.004150 168.942871,367.021759 169.147919,367.576752 
	C169.761597,368.069336 170.375275,368.561920 171.011246,369.001434 
	C171.011246,369.001434 170.953751,368.998871 171.106964,369.516968 
	C171.399796,369.712830 171.692627,369.908722 171.999283,370.014618 
	C171.999283,370.014618 171.909225,370.001282 172.106216,370.509247 
	C172.404495,370.702393 172.702774,370.895538 172.988235,370.999207 
	C172.988235,370.999207 172.898788,371.012329 173.093796,371.521545 
	C173.392487,371.714355 173.691177,371.907166 174.000076,372.010651 
	C174.000076,372.010651 173.910706,372.000793 174.106598,372.509064 
	C174.404724,372.702240 174.702850,372.895447 174.987366,372.999390 
	C174.987366,372.999390 174.898132,373.013367 175.092239,373.517578 
	C175.392120,373.698639 175.692017,373.879700 175.996002,373.997925 
	C175.996002,373.997925 175.934494,374.011383 176.097458,374.524933 
	C176.395142,374.707733 176.692825,374.890533 177.000381,375.007263 
	C177.000381,375.007263 176.933548,375.006592 177.105423,375.518677 
	C177.402527,375.706055 177.699615,375.893463 177.995117,376.003082 
	C177.995117,376.003082 177.917358,376.004944 178.098450,376.517639 
	C178.397766,376.705750 178.697083,376.893890 178.995941,377.004517 
	C178.995941,377.004517 178.918488,377.005310 179.100006,377.513641 
	C179.399841,377.693726 179.699677,377.873810 180.002869,377.991638 
	C180.002869,377.991638 179.941376,378.001984 180.161697,378.462372 
	C180.438904,378.649017 180.716095,378.835663 181.002106,378.996826 
	C181.002106,378.996826 180.977554,379.008331 181.144699,379.493042 
	C181.427170,379.669556 181.709641,379.846100 182.003326,379.997559 
	C182.003326,379.997559 181.977722,380.006989 182.179871,380.475952 
	C182.453629,380.670258 182.727386,380.864563 183.009293,380.997070 
	C183.009293,380.997070 182.947174,381.002533 183.106918,381.457336 
	C183.295181,381.780457 183.571503,381.900085 184.556320,382.124176 
	C189.353439,387.083466 194.150543,392.042725 199.106644,397.516479 
	C199.403610,397.700531 199.700592,397.884583 199.994522,397.999481 
	C199.994522,397.999481 199.925613,398.006042 200.092529,398.521088 
	C200.393677,398.699524 200.694809,398.877960 201.005310,398.996490 
	C201.005310,398.996490 200.945190,399.004608 201.134720,399.494415 
	C201.424515,399.675812 201.714310,399.857178 202.012512,399.987030 
	C202.012512,399.987030 201.961014,399.995575 202.171524,400.471893 
	C202.449234,400.672424 202.726959,400.872925 203.008347,400.997498 
	C203.008347,400.997498 202.932404,400.993439 203.105301,401.509460 
	C203.406067,401.694366 203.706833,401.879272 204.002563,401.991394 
	C204.002563,401.991394 203.929764,401.996063 204.158264,402.463501 
	C204.440460,402.655060 204.722656,402.846619 205.012955,402.987488 
	C205.012955,402.987488 204.962418,402.996399 205.137894,403.490570 
	C205.424133,403.677032 205.710373,403.863495 206.006851,403.993103 
	C206.006851,403.993103 205.949799,404.002106 206.109726,404.539368 
	C206.408936,404.753357 206.708145,404.967346 207.167892,405.549255 
	C207.329132,405.779480 207.546356,405.927673 208.057983,406.502350 
	C208.371429,406.687103 208.684875,406.871857 209.005295,406.995270 
	C209.005295,406.995270 208.944138,407.003601 209.132980,407.494873 
	C209.420944,407.681641 209.708908,407.868408 210.002884,407.994232 
	C210.002884,407.994232 209.942596,408.004852 210.099030,408.523712 
	C210.399445,408.704956 210.699844,408.886200 211.006302,408.999695 
	C211.006302,408.999695 210.938309,408.998260 211.149048,409.471924 
	C211.435715,409.650757 211.722382,409.829590 212.339783,410.586395 
	C223.744904,422.080231 235.068665,433.656311 246.579437,445.043335 
	C256.811188,455.165192 267.540710,464.797394 277.525543,475.151917 
	C290.486053,488.592377 312.885773,488.351746 325.399597,475.923187 
	C378.359039,423.324860 431.176697,370.581055 483.665619,317.514008 
	C493.571259,307.499268 496.088745,294.423370 490.330536,281.201965 
	C487.810150,275.414825 483.342133,270.219330 478.901123,265.575012 
	C467.138519,253.274124 454.927917,241.400711 442.854462,229.398560 
	C438.136200,224.708191 433.308136,220.128311 428.807953,214.923111 
	C446.883942,196.766922 465.000519,178.650757 482.992340,160.411545 
	C485.705261,157.661285 488.310516,154.596786 490.153778,151.232834 
	C497.989594,136.932510 496.476257,122.163620 486.067780,109.627640 
	C478.417725,100.413925 467.953003,96.721741 456.547119,97.273720 
	C445.240021,97.820923 436.227600,104.037521 428.327637,112.072556 
	C411.390381,129.299484 394.205536,146.282959 376.531219,162.964355 
	C373.892426,160.704544 371.068359,158.625793 368.649323,156.151154 
	C361.214264,148.545197 353.998535,140.725098 346.575195,133.107437 
	C339.716461,126.069130 332.701782,119.182716 325.752350,112.232826 
	C292.777130,79.255455 259.848206,46.231544 226.777603,13.350126 
	C221.341721,7.945322 214.446548,5.034404 206.668198,5.027041 
	C149.531647,4.972959 92.395042,4.981788 35.258453,4.987914 
	C22.232746,4.989311 13.029651,14.146524 13.028457,27.060562 
	C13.023590,79.699547 13.029682,132.338531 13.017705,184.977509 
	C13.017290,186.802307 13.111010,188.677246 12.746514,190.443298 
	C11.009406,198.860062 12.805850,206.839020 17.430862,213.614746 
	C21.550030,219.649414 27.205551,224.635376 32.217323,230.561676 
	C32.400524,230.849304 32.659771,231.024368 32.994820,231.002975 
	C32.994820,231.002975 32.910934,231.003540 33.127926,231.491074 
	C33.419743,231.681900 33.711559,231.872726 34.003109,231.995163 
	C34.003109,231.995163 33.934841,231.999191 34.118252,232.501144 
	C34.411743,232.687637 34.705231,232.874130 35.002594,232.995850 
	C35.002594,232.995850 34.938030,233.002518 35.118176,233.503433 
	C35.411030,233.687988 35.703888,233.872543 36.004040,233.995697 
	C36.004040,233.995697 35.942787,234.004120 36.121098,234.505646 
	C36.414310,234.689606 36.707523,234.873566 37.007938,234.994095 
	C37.007938,234.994095 36.944195,234.997757 37.146503,235.498917 
	C37.432991,235.710114 37.719475,235.921295 38.157932,236.530899 
	C38.325024,236.781021 38.555748,236.937088 39.092686,237.492737 
	C39.396046,237.684250 39.699406,237.875763 40.001465,237.997406 
	C40.001465,237.997406 39.931641,238.000046 40.117676,238.503220 
	C40.412010,238.691437 40.706345,238.879669 41.001289,238.998505 
	C41.001289,238.998505 40.931911,239.000275 41.117825,239.503281 
	C41.412056,239.691406 41.706291,239.879547 42.001392,239.998489 
	C42.001392,239.998489 41.932201,240.000351 42.118721,240.504166 
	C42.413418,240.693054 42.708115,240.881943 43.002956,240.997894 
	C43.002956,240.997894 42.930008,240.997574 43.132431,241.488403 
	C43.422489,241.678162 43.712547,241.867920 44.004963,241.992706 
	C44.004963,241.992706 43.940304,241.999619 44.121269,242.500137 
	C44.413574,242.685791 44.705875,242.871445 45.004925,242.995041 
	C45.004925,242.995041 44.942959,243.002563 45.120880,243.503464 
	C45.413189,243.688004 45.705498,243.872559 46.004604,243.995132 
	C46.004604,243.995132 45.942745,244.002869 46.121246,244.503983 
	C46.413692,244.689011 46.706139,244.874023 47.004799,244.995651 
	C47.004799,244.995651 46.941402,245.001709 47.122124,245.502182 
	C47.414345,245.688034 47.706566,245.873886 48.004276,245.995728 
	C48.004276,245.995728 47.940311,246.001678 48.122517,246.503418 
	C48.415108,246.691345 48.707699,246.879272 49.003513,246.998138 
	C49.003513,246.998138 48.934395,246.997650 49.126205,247.518524 
	C49.416138,247.741974 49.706070,247.965439 50.140434,248.572372 
	C50.302654,248.813843 50.527294,248.958160 51.082249,249.491425 
	C51.389626,249.683090 51.697002,249.874756 52.003510,249.996521 
	C52.003510,249.996521 51.933624,249.998383 52.126942,250.496231 
	C52.418915,250.686523 52.710888,250.876816 53.002762,250.997147 
	C53.002762,250.997147 52.932800,250.998260 53.126781,251.495575 
	C53.418797,251.685257 53.710812,251.874939 54.003658,251.995850 
	C54.003658,251.995850 53.934887,251.998032 54.128479,252.496353 
	C54.419441,252.689529 54.710400,252.882690 55.001266,252.999283 
	C55.001266,252.999283 54.924686,252.999283 55.100975,253.513199 
	C55.400192,253.700211 55.699409,253.887207 55.995182,254.000748 
	C55.995182,254.000748 55.921703,254.004379 56.097034,254.516937 
	C56.397026,254.699554 56.697014,254.882172 57.002445,254.999161 
	C57.002445,254.999161 56.936722,255.003159 57.130844,255.497604 
	C57.421410,255.686996 57.711975,255.876389 58.006279,255.996933 
	C58.006279,255.996933 57.937347,255.995819 58.144627,256.484863 
	C58.431210,256.682617 58.717796,256.880371 58.999554,256.995453 
	C58.999554,256.995453 58.916843,257.000092 59.097195,257.516083 
	C59.397430,257.706329 59.697666,257.896576 60.000019,258.003143 
	C60.000019,258.003143 59.916332,258.001160 60.101051,258.511902 
	C60.401340,258.696777 60.701630,258.881653 60.997810,258.996765 
	C60.997810,258.996765 60.928101,259.002045 61.130234,259.491608 
	C61.419353,259.681396 61.708473,259.871185 62.004818,259.997559 
	C62.004818,259.997559 61.941193,260.002716 62.105324,260.515991 
	C62.402351,260.700500 62.699383,260.885010 62.995747,261.000580 
	C62.995747,261.000580 62.926952,261.005341 63.096096,261.520325 
	C63.395199,261.705292 63.694298,261.890289 63.999062,262.006073 
	C63.999062,262.006073 63.929684,262.003693 64.103828,262.518616 
	C64.402184,262.708679 64.700539,262.898773 64.998962,263.001892 
	C64.998962,263.001892 64.912041,263.002014 65.099716,263.513824 
	C65.399551,263.703247 65.699394,263.892639 65.996307,264.000763 
	C65.996307,264.000763 65.915039,264.003906 66.098114,264.515137 
	C66.397987,264.700531 66.697868,264.885956 66.994308,265.000916 
	C66.994308,265.000916 66.923958,265.005341 67.095619,265.520569 
	C67.395569,265.705414 67.695526,265.890259 68.000015,266.005341 
	C68.000015,266.005341 67.930161,266.002899 68.104782,266.516602 
	C68.402733,266.705933 68.700691,266.895294 68.999718,267.001099 
	C68.999718,267.001099 68.916214,267.000244 69.099937,267.511444 
	C69.399780,267.697205 69.699615,267.882935 69.993927,267.998840 
	C69.993927,267.998840 69.924232,268.006012 70.096802,268.520538 
	C70.396393,268.705780 70.695992,268.891052 71.001358,269.006104 
	C71.001358,269.006104 70.931099,269.001190 71.107368,269.514099 
	C71.405136,269.703644 71.702896,269.893158 71.998077,269.999237 
	C71.998077,269.999237 71.914612,270.001984 72.099670,270.513763 
	C72.399452,270.701508 72.699234,270.889221 72.998161,271.001312 
	C72.998161,271.001312 72.922516,271.002319 73.102081,271.514587 
	C73.400970,271.702118 73.699867,271.889648 73.998268,272.001404 
	C73.998268,272.001404 73.922523,272.002075 74.102325,272.515198 
	C74.401176,272.704376 74.700027,272.893524 74.999786,273.001892 
	C74.999786,273.001892 74.918968,273.001129 75.102333,273.510468 
	C75.401070,273.695770 75.699806,273.881073 75.995895,273.997375 
	C75.995895,273.997375 75.927185,274.003967 76.103065,274.530823 
	C76.400185,274.740906 76.697311,274.950958 77.179131,275.552277 
	C77.360016,275.798126 77.601097,275.945587 78.155701,276.456818 
	C78.438293,276.658020 78.720886,276.859192 79.009155,276.995178 
	C79.009155,276.995178 78.943726,276.997589 79.108910,277.513702 
	C79.405807,277.703674 79.702713,277.893616 79.998573,278.000641 
	C79.998573,278.000641 79.915642,278.001862 80.100594,278.514526 
	C80.400185,278.704315 80.699783,278.894104 80.999313,279.001617 
	C80.999313,279.001617 80.917030,279.001892 81.102898,279.510101 
	C81.403061,279.692078 81.703224,279.874054 82.004082,279.990417 
	C82.004082,279.990417 81.938866,279.997742 82.165474,280.462189 
	C82.443291,280.657043 82.721100,280.851929 83.007248,280.991791 
	C83.007248,280.991791 82.952896,281.003723 83.106247,281.519714 
	C83.402580,281.704559 83.698914,281.889374 83.999611,282.004608 
	C83.999611,282.004608 83.929878,282.002625 84.104622,282.516296 
	C84.402664,282.705414 84.700699,282.894531 84.999062,283.001434 
	C84.999062,283.001434 84.916847,283.001282 85.100983,283.511353 
z"/>
<path fill="#027E6E" opacity="1.000000" stroke="none" 
	d="
M150.953110,348.998749 
	C148.479889,346.392883 146.006653,343.787048 143.086395,340.834259 
	C142.426498,340.290955 142.189575,340.129944 141.928574,340.004364 
	C141.928574,340.004364 142.000092,340.006622 141.871338,339.821564 
	C141.480301,339.425201 141.218002,339.213867 140.955719,339.002563 
	C140.955719,339.002563 141.007935,338.990356 140.867889,338.807495 
	C140.514404,338.362366 140.257126,338.154388 139.956009,338.000641 
	C139.956009,338.000641 140.009415,337.992126 139.874405,337.802460 
	C139.475937,337.409241 139.212479,337.205688 138.949020,337.002106 
	C138.949020,337.002106 139.006775,336.990570 138.863617,336.808838 
	C138.458160,336.416626 138.195862,336.206146 137.933563,335.995697 
	C137.933563,335.995697 138.003143,335.990814 137.855347,335.818726 
	C137.445572,335.431519 137.183594,335.216370 136.921616,335.001190 
	C136.921616,335.001190 137.001938,335.004333 136.859711,334.828979 
	C136.453140,334.438263 136.188812,334.222900 135.924469,334.007538 
	C135.924469,334.007538 135.993408,334.001740 135.848557,333.827850 
	C135.445831,333.435944 135.187958,333.217896 134.930084,332.999847 
	C134.930084,332.999847 135.001770,333.005188 134.864960,332.820679 
	C134.459610,332.425568 134.191071,332.214966 133.922531,332.004364 
	C133.922531,332.004364 133.994537,331.998199 133.852814,331.824829 
	C133.453918,331.432007 133.196747,331.212616 132.939575,330.993195 
	C132.939575,330.993195 133.009354,330.995880 132.866882,330.816772 
	C132.461060,330.423492 132.197739,330.209351 131.934418,329.995178 
	C131.934418,329.995178 132.003891,329.991302 131.860260,329.817047 
	C131.457321,329.426636 131.198029,329.210480 130.938721,328.994324 
	C130.938721,328.994324 131.008423,328.996185 130.866394,328.816803 
	C130.460632,328.423462 130.196899,328.209534 129.933151,327.995575 
	C129.933151,327.995575 130.003052,327.991119 129.854980,327.819214 
	C129.444778,327.432007 129.182632,327.216675 128.920502,327.001343 
	C128.920502,327.001343 129.001755,327.004547 128.858917,326.828857 
	C128.451523,326.436066 128.186951,326.218933 127.922379,326.001801 
	C127.922379,326.001801 127.996193,326.001465 127.863495,325.827484 
	C127.527763,325.383759 127.278374,325.167450 126.982620,325.004608 
	C126.982620,325.004608 127.004005,324.998383 126.882309,324.792908 
	C126.557129,324.318054 126.297417,324.123840 125.981483,324.004791 
	C125.981483,324.004791 126.001358,323.996552 125.857803,323.802673 
	C125.493309,323.357117 125.233353,323.155823 124.934387,323.004913 
	C124.934387,323.004913 125.001266,323.002716 124.864777,322.816498 
	C124.459785,322.421814 124.191284,322.213318 123.922783,322.004852 
	C123.922783,322.004852 123.994164,321.997894 123.850243,321.825531 
	C123.447044,321.435425 123.187775,321.217712 122.928497,320.999969 
	C122.928497,320.999969 123.001663,321.005615 122.865570,320.822113 
	C122.462471,320.427704 122.195473,320.216797 121.928474,320.005890 
	C121.928474,320.005890 121.995934,319.997559 121.851456,319.820923 
	C121.442879,319.430328 121.178780,319.216400 120.914680,319.002441 
	C120.914680,319.002441 120.997749,318.999176 120.850952,318.830566 
	C120.443741,318.440948 120.183334,318.219940 119.922928,317.998932 
	C119.922935,317.998932 120.001991,318.003571 119.864410,317.826172 
	C119.467117,317.431641 119.207397,317.214539 118.947678,316.997437 
	C118.947670,316.997437 119.009933,316.992065 118.870193,316.811615 
	C118.473236,316.418701 118.216003,316.206268 117.958778,315.993805 
	C117.958778,315.993805 118.012802,315.984558 117.866508,315.801666 
	C117.453453,315.412170 117.186691,315.205566 116.919922,314.998993 
	C116.919922,314.998993 117.000740,314.994049 116.853889,314.825684 
	C116.446396,314.437866 116.185753,314.218445 115.925102,313.998993 
	C115.925102,313.998993 116.003250,314.004272 115.866592,313.824829 
	C115.467331,313.430725 115.204727,313.216095 114.942123,313.001434 
	C114.942123,313.001434 115.004936,312.994629 114.866989,312.810760 
	C114.466042,312.416809 114.203041,312.206696 113.940041,311.996613 
	C113.940041,311.996613 114.005981,311.990112 113.859329,311.814026 
	C113.448288,311.425598 113.183907,311.213226 112.919525,311.000885 
	C112.919525,311.000885 113.000443,310.999146 112.853325,310.828979 
	C112.445000,310.438690 112.183800,310.218567 111.922592,309.998444 
	C111.922592,309.998444 112.002174,310.002289 111.863243,309.825928 
	C111.462242,309.434570 111.200172,309.219604 110.938095,309.004639 
	C110.938095,309.004639 111.002434,309.001038 110.869476,308.814514 
	C110.473671,308.420349 110.210831,308.212677 109.947998,308.005005 
	C109.947998,308.005005 110.004631,307.992981 109.867561,307.808655 
	C109.470100,307.417511 109.209709,307.210663 108.949310,307.003815 
	C108.949310,307.003815 109.006783,306.995026 108.869186,306.806335 
	C108.464180,306.413574 108.196770,306.209503 107.929352,306.005432 
	C107.929352,306.005432 107.996758,305.997620 107.856010,305.818420 
	C107.452126,305.424652 107.188988,305.210114 106.925842,304.995575 
	C106.925842,304.995575 107.004684,304.993347 106.859879,304.822998 
	C106.456940,304.432404 106.198814,304.212189 105.940697,303.991943 
	C105.940697,303.991943 106.009338,303.991425 105.865921,303.814209 
	C105.459908,303.424316 105.197311,303.211639 104.934708,302.998932 
	C104.934708,302.998932 105.003799,302.999054 104.865204,302.817261 
	C104.460869,302.424835 104.195129,302.214172 103.929390,302.003510 
	C103.929390,302.003510 103.998177,302.000397 103.862335,301.819824 
	C103.466667,301.425232 103.206825,301.211243 102.946991,300.997223 
	C102.946999,300.997223 103.009933,300.990967 102.858452,300.807861 
	C102.430016,300.415680 102.153069,300.206604 101.876114,299.997528 
	C97.433235,295.371460 92.990372,290.745361 88.095253,285.806152 
	C87.432884,285.294800 87.199249,285.129822 86.942108,284.998138 
	C86.942108,284.998138 87.009834,284.997406 86.866432,284.818970 
	C86.461472,284.426300 86.199905,284.212097 85.938339,283.997894 
	C85.938339,283.997894 86.004112,283.991180 85.854630,283.817169 
	C85.442383,283.429199 85.179611,283.215240 84.916847,283.001282 
	C84.916847,283.001282 84.999062,283.001434 84.855179,282.830139 
	C84.450829,282.440094 84.190346,282.221375 83.929871,282.002625 
	C83.929878,282.002625 83.999611,282.004608 83.863998,281.824219 
	C83.469887,281.430481 83.211395,281.217102 82.952896,281.003723 
	C82.952896,281.003723 83.007248,280.991791 82.862701,280.810120 
	C82.458389,280.418213 82.198624,280.207977 81.938858,279.997742 
	C81.938866,279.997742 82.004082,279.990417 81.854691,279.816345 
	C81.442543,279.428802 81.179787,279.215363 80.917030,279.001892 
	C80.917030,279.001892 80.999313,279.001617 80.852859,278.830078 
	C80.442810,278.439667 80.179222,278.220764 79.915642,278.001862 
	C79.915642,278.001862 79.998573,278.000641 79.855225,277.831421 
	C79.455826,277.440643 79.199776,277.219116 78.943726,276.997589 
	C78.943726,276.997589 79.009155,276.995178 78.860741,276.813293 
	C78.442337,276.419159 78.172348,276.206909 77.902367,275.994629 
	C77.601097,275.945587 77.360016,275.798126 76.957169,275.122314 
	C76.465874,274.462921 76.196526,274.233429 75.927185,274.003967 
	C75.927185,274.003967 75.995895,273.997375 75.848694,273.824280 
	C75.440651,273.434509 75.179810,273.217804 74.918968,273.001129 
	C74.918968,273.001129 74.999786,273.001892 74.854622,272.829529 
	C74.447144,272.438812 74.184837,272.220428 73.922523,272.002075 
	C73.922523,272.002075 73.998268,272.001404 73.853790,271.827393 
	C73.447037,271.436401 73.184776,271.219360 72.922516,271.002319 
	C72.922516,271.002319 72.998161,271.001312 72.852463,270.827148 
	C72.442703,270.435974 72.178658,270.218964 71.914612,270.001984 
	C71.914612,270.001984 71.998077,269.999237 71.851791,269.831787 
	C71.447380,269.443268 71.189240,269.222229 70.931099,269.001190 
	C70.931099,269.001190 71.001358,269.006104 70.862595,268.823090 
	C70.457291,268.428711 70.190765,268.217377 69.924232,268.006012 
	C69.924232,268.006012 69.993927,267.998840 69.847015,267.826111 
	C69.438805,267.435638 69.177513,267.217926 68.916214,267.000244 
	C68.916214,267.000244 68.999718,267.001099 68.855331,266.830475 
	C68.450676,266.440857 68.190422,266.221893 67.930161,266.002899 
	C67.930161,266.002899 68.000015,266.005341 67.859573,265.824158 
	C67.454071,265.430420 67.189018,265.217896 66.923958,265.005341 
	C66.923958,265.005341 66.994308,265.000916 66.849998,264.825409 
	C66.442139,264.434570 66.178589,264.219238 65.915039,264.003906 
	C65.915039,264.003906 65.996307,264.000763 65.848122,263.831268 
	C65.437302,263.441864 65.174667,263.221924 64.912041,263.002014 
	C64.912041,263.002014 64.998962,263.001892 64.852859,262.834351 
	C64.447723,262.445740 64.188705,262.224731 63.929684,262.003693 
	C63.929684,262.003693 63.999062,262.006073 63.859428,261.824280 
	C63.455517,261.430115 63.191235,261.217712 62.926956,261.005341 
	C62.926952,261.005341 62.995747,261.000580 62.855942,260.824036 
	C62.457825,260.432556 62.199509,260.217621 61.941193,260.002716 
	C61.941193,260.002716 62.004818,259.997559 61.863533,259.814667 
	C61.457535,259.421844 61.192822,259.211945 60.928104,259.002045 
	C60.928101,259.002045 60.997810,258.996765 60.849937,258.824097 
	C60.440155,258.434692 60.178246,258.217926 59.916336,258.001160 
	C59.916332,258.001160 60.000019,258.003143 59.855427,257.829590 
	C59.446175,257.437408 59.181511,257.218750 58.916847,257.000092 
	C58.916843,257.000092 58.999554,256.995453 58.853180,256.828979 
	C58.450325,256.440247 58.193836,256.218048 57.937347,255.995819 
	C57.937347,255.995819 58.006279,255.996933 57.863754,255.819244 
	C57.459728,255.428772 57.198223,255.215973 56.936722,255.003159 
	C56.936722,255.003159 57.002445,254.999161 56.859859,254.818008 
	C56.452084,254.426025 56.186897,254.215195 55.921707,254.004379 
	C55.921703,254.004379 55.995182,254.000748 55.851959,253.826279 
	C55.447384,253.434296 55.186035,253.216797 54.924683,252.999283 
	C54.924686,252.999283 55.001266,252.999283 54.858898,252.824936 
	C54.455978,252.433075 54.195431,252.215561 53.934883,251.998032 
	C53.934887,251.998032 54.003658,251.995850 53.859371,251.819839 
	C53.454323,251.428635 53.193562,251.213455 52.932800,250.998260 
	C52.932800,250.998260 53.002762,250.997147 52.858902,250.821518 
	C52.454567,250.430054 52.194096,250.214218 51.933624,249.998383 
	C51.933624,249.998383 52.003510,249.996521 51.845222,249.813385 
	C51.396072,249.421936 51.105213,249.213623 50.814354,249.005310 
	C50.527294,248.958160 50.302654,248.813843 49.934479,248.145508 
	C49.463818,247.478317 49.199104,247.237976 48.934395,246.997650 
	C48.934395,246.997650 49.003513,246.998138 48.862404,246.820282 
	C48.460968,246.428848 48.200642,246.215256 47.940311,246.001678 
	C47.940311,246.001678 48.004276,245.995728 47.863037,245.816010 
	C47.461666,245.424774 47.201530,245.213242 46.941399,245.001709 
	C46.941402,245.001709 47.004799,244.995651 46.864780,244.814789 
	C46.464092,244.423569 46.203423,244.213211 45.942749,244.002869 
	C45.942745,244.002869 46.004604,243.995132 45.864288,243.813995 
	C45.463627,243.422745 45.203289,243.212662 44.942955,243.002563 
	C44.942959,243.002563 45.004925,242.995041 44.864346,242.813293 
	C44.462612,242.420898 44.201458,242.210266 43.940304,241.999619 
	C43.940304,241.999619 44.004963,241.992706 43.859047,241.816101 
	C43.452091,241.425522 43.191048,241.211548 42.930008,240.997574 
	C42.930008,240.997574 43.002956,240.997894 42.860504,240.821869 
	C42.456097,240.430664 42.194149,240.215515 41.932201,240.000351 
	C41.932201,240.000351 42.001392,239.998489 41.859375,239.820801 
	C41.455536,239.428848 41.193722,239.214569 40.931908,239.000275 
	C40.931911,239.000275 41.001289,238.998505 40.859203,238.820953 
	C40.455292,238.428955 40.193470,238.214493 39.931644,238.000046 
	C39.931641,238.000046 40.001465,237.997406 39.848179,237.815887 
	C39.413300,237.422592 39.131702,237.210846 38.850105,236.999084 
	C38.555748,236.937088 38.325024,236.781021 37.944069,236.107788 
	C37.468204,235.455704 37.206203,235.226730 36.944199,234.997757 
	C36.944195,234.997757 37.007938,234.994095 36.867195,234.813385 
	C36.465229,234.423157 36.204006,234.213638 35.942787,234.004120 
	C35.942787,234.004120 36.004040,233.995697 35.863300,233.813751 
	C35.461052,233.422028 35.199543,233.212265 34.938034,233.002518 
	C34.938030,233.002518 35.002594,232.995850 34.860855,232.816132 
	C34.457695,232.423996 34.196270,232.211594 33.934841,231.999191 
	C33.934841,231.999191 34.003109,231.995163 33.855812,231.819199 
	C33.442654,231.430008 33.176792,231.216782 32.910934,231.003540 
	C32.910934,231.003540 32.994820,231.002975 32.883713,230.858292 
	C32.611206,230.470886 32.414680,230.261078 32.183029,230.084167 
	C27.205551,224.635376 21.550030,219.649414 17.430862,213.614746 
	C12.805850,206.839020 11.009406,198.860062 12.746514,190.443298 
	C13.111010,188.677246 13.017290,186.802307 13.017705,184.977509 
	C13.029682,132.338531 13.023590,79.699547 13.028457,27.060562 
	C13.029651,14.146524 22.232746,4.989311 35.258453,4.987914 
	C92.395042,4.981788 149.531647,4.972959 206.668198,5.027041 
	C214.446548,5.034404 221.341721,7.945322 226.777603,13.350126 
	C259.848206,46.231544 292.777130,79.255455 325.752350,112.232826 
	C332.701782,119.182716 339.716461,126.069130 346.575195,133.107437 
	C353.998535,140.725098 361.214264,148.545197 368.649323,156.151154 
	C371.068359,158.625793 373.892426,160.704544 376.801270,163.492004 
	C376.313385,164.891678 375.605072,165.813339 374.790192,166.628464 
	C353.241882,188.183060 331.668793,209.712906 310.129517,231.276505 
	C292.961609,248.463776 275.832672,265.690033 258.063293,283.524414 
	C256.417511,281.569641 255.134247,279.806091 253.614426,278.277802 
	C240.576309,265.167236 227.516205,252.078354 214.419815,239.026031 
	C205.968185,230.602859 195.896057,225.900833 183.821518,227.375717 
	C169.659653,229.105576 159.199768,236.505280 154.072891,250.009766 
	C148.673615,264.231781 151.429291,277.495209 161.972656,288.300812 
	C183.840576,310.712585 206.024109,332.823181 228.398026,354.730652 
	C235.790192,361.968750 244.366730,367.917358 255.195160,369.003693 
	C267.886871,370.276978 278.126434,365.242706 286.932159,356.423676 
	C327.063873,316.231232 367.237061,276.080170 407.435638,235.954636 
	C414.367188,229.035675 421.493683,222.311996 428.530090,215.498108 
	C433.308136,220.128311 438.136200,224.708191 442.854462,229.398560 
	C454.927917,241.400711 467.138519,253.274124 478.901123,265.575012 
	C483.342133,270.219330 487.810150,275.414825 490.330536,281.201965 
	C496.088745,294.423370 493.571259,307.499268 483.665619,317.514008 
	C431.176697,370.581055 378.359039,423.324860 325.399597,475.923187 
	C312.885773,488.351746 290.486053,488.592377 277.525543,475.151917 
	C267.540710,464.797394 256.811188,455.165192 246.579437,445.043335 
	C235.068665,433.656311 223.744904,422.080231 212.027496,410.097534 
	C211.491959,409.359741 211.232986,409.156281 210.938309,408.998260 
	C210.938309,408.998260 211.006302,408.999695 210.873108,408.813965 
	C210.474136,408.420441 210.208359,408.212646 209.942596,408.004852 
	C209.942596,408.004852 210.002884,407.994232 209.866364,407.810455 
	C209.467941,407.419006 209.206039,407.211304 208.944122,407.003601 
	C208.944138,407.003601 209.005295,406.995270 208.853210,406.800568 
	C208.407257,406.401855 208.113403,406.197876 207.819534,405.993866 
	C207.546356,405.927673 207.329132,405.779480 206.961945,405.125946 
	C206.487259,404.469116 206.218536,404.235626 205.949799,404.002106 
	C205.949799,404.002106 206.006851,403.993103 205.872223,403.806915 
	C205.479218,403.412628 205.220810,403.204529 204.962402,402.996399 
	C204.962418,402.996399 205.012955,402.987488 204.869110,402.801392 
	C204.460083,402.408905 204.194916,402.202484 203.929764,401.996063 
	C203.929764,401.996063 204.002563,401.991394 203.857880,401.818848 
	C203.452927,401.428711 203.192657,401.211090 202.932404,400.993439 
	C202.932404,400.993439 203.008347,400.997498 202.871490,400.820190 
	C202.476761,400.427124 202.218887,400.211365 201.961014,399.995575 
	C201.961014,399.995575 202.012512,399.987030 201.873917,399.800476 
	C201.471954,399.410797 201.208572,399.207703 200.945190,399.004608 
	C200.945190,399.004608 201.005310,398.996490 200.868210,398.808289 
	C200.462601,398.415436 200.194107,398.210754 199.925613,398.006042 
	C199.925613,398.006042 199.994522,397.999481 199.857483,397.822571 
	C199.462860,397.431122 199.205246,397.216553 198.947647,397.002014 
	C194.150543,392.042725 189.353439,387.083466 184.104324,381.808533 
	C183.442245,381.293549 183.207199,381.130096 182.947174,381.002533 
	C182.947174,381.002533 183.009293,380.997070 182.872345,380.817963 
	C182.528381,380.373596 182.275818,380.162994 181.977722,380.006989 
	C181.977722,380.006989 182.003326,379.997559 181.868866,379.803650 
	C181.527969,379.351562 181.275696,379.151093 180.977554,379.008331 
	C180.977554,379.008331 181.002106,378.996826 180.859863,378.803650 
	C180.500153,378.354980 180.241409,378.152161 179.941376,378.001984 
	C179.941376,378.001984 180.002869,377.991638 179.854126,377.815796 
	C179.443085,377.428406 179.180786,377.216858 178.918488,377.005310 
	C178.918488,377.005310 178.995941,377.004517 178.851105,376.830872 
	C178.443298,376.439789 178.180328,376.222351 177.917358,376.004944 
	C177.917358,376.004944 177.995117,376.003082 177.851074,375.832520 
	C177.449203,375.443512 177.191376,375.225037 176.933548,375.006592 
	C176.933548,375.006592 177.000381,375.007263 176.862579,374.823425 
	C176.461365,374.430206 176.197922,374.220795 175.934494,374.011383 
	C175.934494,374.011383 175.996002,373.997925 175.848328,373.819153 
	C175.433136,373.431366 175.165634,373.222382 174.898132,373.013367 
	C174.898132,373.013367 174.987366,372.999390 174.834229,372.841553 
	C174.424286,372.456055 174.167496,372.228424 173.910706,372.000793 
	C173.910706,372.000793 174.000076,372.010651 173.851318,371.837982 
	C173.434631,371.447662 173.166702,371.229980 172.898788,371.012329 
	C172.898788,371.012329 172.988235,370.999207 172.834274,370.841675 
	C172.423279,370.456543 172.166245,370.228912 171.909210,370.001282 
	C171.909225,370.001282 171.999283,370.014618 171.858719,369.841370 
	C171.463348,369.445038 171.208542,369.221954 170.953735,368.998871 
	C170.953751,368.998871 171.011246,369.001434 170.912796,368.726318 
	C170.190521,367.974701 169.566696,367.498230 168.942871,367.021759 
	C168.942871,367.021759 169.004501,367.004150 168.867813,366.822723 
	C168.471786,366.426605 168.212463,366.211914 167.953140,365.997192 
	C167.953140,365.997192 168.010666,365.990265 167.872284,365.802002 
	C167.464890,365.410553 167.195862,365.207367 166.926849,365.004181 
	C166.926849,365.004181 166.996231,364.997528 166.856201,364.820831 
	C166.456131,364.428009 166.196106,364.211884 165.936096,363.995758 
	C165.936096,363.995758 166.006027,363.997223 165.867035,363.815857 
	C165.462952,363.421997 165.197861,363.209534 164.932770,362.997070 
	C164.932770,362.997070 165.002625,362.993835 164.860275,362.818207 
	C164.456314,362.428680 164.194702,362.214813 163.933090,362.000916 
	C163.933090,362.000916 164.002396,362.002838 163.866852,361.817291 
	C163.463226,361.422363 163.195114,361.213013 162.927017,361.003632 
	C162.927017,361.003632 162.996384,360.996948 162.852203,360.820740 
	C162.443146,360.429749 162.178284,360.214996 161.913406,360.000244 
	C161.913406,360.000244 161.999771,359.997253 161.853226,359.830322 
	C161.447342,359.441589 161.187988,359.219757 160.928635,358.997925 
	C160.928635,358.997925 161.003922,359.004669 160.867691,358.821320 
	C160.463959,358.426453 160.196472,358.214935 159.928970,358.003418 
	C159.928970,358.003418 159.997314,357.998077 159.864655,357.822083 
	C159.527557,357.378265 159.277466,357.163574 158.981705,357.002075 
	C158.981705,357.002075 159.006744,356.997314 158.877228,356.787354 
	C158.474243,356.380798 158.200790,356.184204 157.927338,355.987610 
	C157.623642,355.949402 157.379044,355.808563 156.970139,355.130981 
	C156.472824,354.465118 156.198883,354.233398 155.924942,354.001678 
	C155.924942,354.001678 155.996979,353.996521 155.851135,353.825134 
	C155.446167,353.435394 155.187042,353.216980 154.927917,352.998566 
	C154.927933,352.998566 155.002731,353.004700 154.865402,352.821014 
	C154.459167,352.425842 154.190262,352.214355 153.921356,352.002869 
	C153.921356,352.002869 153.995346,351.995605 153.850708,351.825073 
	C153.447388,351.435669 153.188690,351.216827 152.929993,350.997986 
	C152.929993,350.997986 153.004059,351.004547 152.868073,350.820435 
	C152.464020,350.425354 152.195938,350.214386 151.927872,350.003418 
	C151.927872,350.003418 151.996872,349.997803 151.859863,349.820984 
	C151.466263,349.429016 151.209686,349.213898 150.953110,348.998749 
M69.779915,76.447922 
	C61.467705,100.578041 79.407745,121.935417 100.076355,122.593544 
	C116.442390,123.114670 130.405701,113.294884 134.990646,97.097038 
	C139.152191,82.395020 132.055923,65.909698 118.515022,58.375610 
	C103.048004,49.769844 78.978935,53.795593 69.779915,76.447922 
z"/>
<path fill="#FDFFFF" opacity="1.000000" stroke="none" 
	d="
M428.669006,215.210602 
	C421.493683,222.311996 414.367188,229.035675 407.435638,235.954636 
	C367.237061,276.080170 327.063873,316.231232 286.932159,356.423676 
	C278.126434,365.242706 267.886871,370.276978 255.195160,369.003693 
	C244.366730,367.917358 235.790192,361.968750 228.398026,354.730652 
	C206.024109,332.823181 183.840576,310.712585 161.972656,288.300812 
	C151.429291,277.495209 148.673615,264.231781 154.072891,250.009766 
	C159.199768,236.505280 169.659653,229.105576 183.821518,227.375717 
	C195.896057,225.900833 205.968185,230.602859 214.419815,239.026031 
	C227.516205,252.078354 240.576309,265.167236 253.614426,278.277802 
	C255.134247,279.806091 256.417511,281.569641 258.063293,283.524414 
	C275.832672,265.690033 292.961609,248.463776 310.129517,231.276505 
	C331.668793,209.712906 353.241882,188.183060 374.790192,166.628464 
	C375.605072,165.813339 376.313385,164.891678 377.096741,163.692902 
	C394.205536,146.282959 411.390381,129.299484 428.327637,112.072556 
	C436.227600,104.037521 445.240021,97.820923 456.547119,97.273720 
	C467.953003,96.721741 478.417725,100.413925 486.067780,109.627640 
	C496.476257,122.163620 497.989594,136.932510 490.153778,151.232834 
	C488.310516,154.596786 485.705261,157.661285 482.992340,160.411545 
	C465.000519,178.650757 446.883942,196.766922 428.669006,215.210602 
z"/>
<path fill="#1D7D75" opacity="1.000000" stroke="none" 
	d="
M169.045395,367.299255 
	C169.566696,367.498230 170.190521,367.974701 170.901642,368.752838 
	C170.375275,368.561920 169.761597,368.069336 169.045395,367.299255 
z"/>
<path fill="#258073" opacity="1.000000" stroke="none" 
	d="
M135.016083,333.256165 
	C135.187958,333.217896 135.445831,333.435944 135.849472,333.862427 
	C135.697525,333.884735 135.399811,333.698608 135.016083,333.256165 
z"/>
<path fill="#267E75" opacity="1.000000" stroke="none" 
	d="
M159.050354,357.259521 
	C159.277466,357.163574 159.527557,357.378265 159.864929,357.856384 
	C159.704910,357.883392 159.411957,357.700165 159.050354,357.259521 
z"/>
<path fill="#258073" opacity="1.000000" stroke="none" 
	d="
M136.011490,334.265381 
	C136.188812,334.222900 136.453140,334.438263 136.858032,334.869141 
	C136.698563,334.897491 136.398544,334.710358 136.011490,334.265381 
z"/>
<path fill="#258073" opacity="1.000000" stroke="none" 
	d="
M137.013336,335.256378 
	C137.183594,335.216370 137.445572,335.431519 137.857300,335.853577 
	C137.706390,335.877502 137.405731,335.694519 137.013336,335.256378 
z"/>
<path fill="#258073" opacity="1.000000" stroke="none" 
	d="
M138.047638,336.229370 
	C138.195862,336.206146 138.458160,336.416626 138.860962,336.838135 
	C138.721558,336.853821 138.441650,336.658447 138.047638,336.229370 
z"/>
<path fill="#258073" opacity="1.000000" stroke="none" 
	d="
M139.024841,337.259827 
	C139.212479,337.205688 139.475937,337.409241 139.868500,337.828857 
	C139.698624,337.869141 139.399643,337.693359 139.024841,337.259827 
z"/>
<path fill="#258073" opacity="1.000000" stroke="none" 
	d="
M140.062927,338.233917 
	C140.257126,338.154388 140.514404,338.362366 140.863785,338.833954 
	C140.723083,338.851288 140.446457,338.659241 140.062927,338.233917 
z"/>
<path fill="#258073" opacity="1.000000" stroke="none" 
	d="
M141.029999,339.262512 
	C141.218002,339.213867 141.480301,339.425201 141.870117,339.857300 
	C141.699844,339.892914 141.402054,339.707672 141.029999,339.262512 
z"/>
<path fill="#258073" opacity="1.000000" stroke="none" 
	d="
M142.014130,340.228333 
	C142.189575,340.129944 142.426498,340.290955 142.782410,340.647949 
	C142.563690,340.890442 142.288437,340.771698 142.014130,340.228333 
z"/>
<path fill="#267E75" opacity="1.000000" stroke="none" 
	d="
M151.031677,349.255981 
	C151.209686,349.213898 151.466263,349.429016 151.860901,349.855591 
	C151.702728,349.882416 151.406479,349.697815 151.031677,349.255981 
z"/>
<path fill="#267E75" opacity="1.000000" stroke="none" 
	d="
M152.012192,350.262207 
	C152.195938,350.214386 152.464020,350.425354 152.864868,350.857483 
	C152.697266,350.892731 152.396896,350.706879 152.012192,350.262207 
z"/>
<path fill="#267E75" opacity="1.000000" stroke="none" 
	d="
M153.018448,351.254089 
	C153.188690,351.216827 153.447388,351.435669 153.854431,351.862061 
	C153.704178,351.883118 153.405548,351.696686 153.018448,351.254089 
z"/>
<path fill="#267E75" opacity="1.000000" stroke="none" 
	d="
M154.007751,352.261444 
	C154.190262,352.214355 154.459167,352.425842 154.862259,352.858398 
	C154.695694,352.893005 154.394928,352.706512 154.007751,352.261444 
z"/>
<path fill="#267E75" opacity="1.000000" stroke="none" 
	d="
M155.016052,353.255127 
	C155.187042,353.216980 155.446167,353.435394 155.853821,353.861145 
	C155.702972,353.882904 155.403595,353.697296 155.016052,353.255127 
z"/>
<path fill="#267E75" opacity="1.000000" stroke="none" 
	d="
M156.014618,354.268250 
	C156.198883,354.233398 156.472824,354.465118 156.877350,354.935608 
	C156.706711,354.961151 156.405502,354.747986 156.014618,354.268250 
z"/>
<path fill="#267E75" opacity="1.000000" stroke="none" 
	d="
M158.059021,356.204987 
	C158.200790,356.184204 158.474243,356.380798 158.873154,356.799530 
	C158.729309,356.821899 158.460007,356.622131 158.059021,356.204987 
z"/>
<path fill="#258073" opacity="1.000000" stroke="none" 
	d="
M118.065300,316.229492 
	C118.216003,316.206268 118.473236,316.418701 118.866913,316.842682 
	C118.726189,316.857849 118.449005,316.661499 118.065300,316.229492 
z"/>
<path fill="#258073" opacity="1.000000" stroke="none" 
	d="
M126.096283,324.222839 
	C126.297417,324.123840 126.557129,324.318054 126.878075,324.803467 
	C126.675743,324.905670 126.414253,324.712830 126.096283,324.222839 
z"/>
<path fill="#267C74" opacity="1.000000" stroke="none" 
	d="
M211.043671,409.235107 
	C211.232986,409.156281 211.491959,409.359741 211.862122,409.808533 
	C211.722382,409.829590 211.435715,409.650757 211.043671,409.235107 
z"/>
<path fill="#258073" opacity="1.000000" stroke="none" 
	d="
M119.026222,317.256958 
	C119.207397,317.214539 119.467117,317.431641 119.862000,317.865692 
	C119.699699,317.893921 119.402229,317.705200 119.026222,317.256958 
z"/>
<path fill="#258073" opacity="1.000000" stroke="none" 
	d="
M120.013489,318.255615 
	C120.183334,318.219940 120.443741,318.440948 120.852493,318.872101 
	C120.701912,318.892242 120.402977,318.702271 120.013489,318.255615 
z"/>
<path fill="#258073" opacity="1.000000" stroke="none" 
	d="
M121.006470,319.257690 
	C121.178780,319.216400 121.442879,319.430328 121.852585,319.854889 
	C121.698219,319.881317 121.398239,319.697144 121.006470,319.257690 
z"/>
<path fill="#258073" opacity="1.000000" stroke="none" 
	d="
M122.012360,320.264252 
	C122.195473,320.216797 122.462471,320.427704 122.862640,320.858704 
	C122.695953,320.893402 122.396095,320.708008 122.012360,320.264252 
z"/>
<path fill="#258073" opacity="1.000000" stroke="none" 
	d="
M123.015732,321.256714 
	C123.187775,321.217712 123.447044,321.435425 123.853630,321.861237 
	C123.701614,321.884033 123.402298,321.698730 123.015732,321.256714 
z"/>
<path fill="#258073" opacity="1.000000" stroke="none" 
	d="
M124.008232,322.262512 
	C124.191284,322.213318 124.459785,322.421814 124.861710,322.849823 
	C124.694649,322.886292 124.394165,322.703217 124.008232,322.262512 
z"/>
<path fill="#258073" opacity="1.000000" stroke="none" 
	d="
M125.018150,323.257202 
	C125.233353,323.155823 125.493309,323.357117 125.854813,323.812805 
	C125.697556,323.847687 125.399734,323.678589 125.018150,323.257202 
z"/>
<path fill="#258073" opacity="1.000000" stroke="none" 
	d="
M134.008331,332.262695 
	C134.191071,332.214966 134.459610,332.425568 134.862213,332.856537 
	C134.695557,332.891602 134.394836,332.706329 134.008331,332.262695 
z"/>
<path fill="#258073" opacity="1.000000" stroke="none" 
	d="
M127.050919,325.262207 
	C127.278374,325.167450 127.527763,325.383759 127.863571,325.864380 
	C127.703957,325.890106 127.411583,325.704956 127.050919,325.262207 
z"/>
<path fill="#258073" opacity="1.000000" stroke="none" 
	d="
M128.009369,326.260681 
	C128.186951,326.218933 128.451523,326.436066 128.857208,326.869507 
	C128.697678,326.897034 128.397034,326.708313 128.009369,326.260681 
z"/>
<path fill="#258073" opacity="1.000000" stroke="none" 
	d="
M129.012512,327.256592 
	C129.182632,327.216675 129.444778,327.432007 129.857010,327.854187 
	C129.706253,327.877960 129.405396,327.694885 129.012512,327.256592 
z"/>
<path fill="#258073" opacity="1.000000" stroke="none" 
	d="
M130.048340,328.230896 
	C130.196899,328.209534 130.460632,328.423462 130.865021,328.851654 
	C130.724945,328.865997 130.444244,328.666107 130.048340,328.230896 
z"/>
<path fill="#258073" opacity="1.000000" stroke="none" 
	d="
M131.022491,329.252380 
	C131.198029,329.210480 131.457321,329.426636 131.861633,329.851807 
	C131.706512,329.877380 131.406387,329.693939 131.022491,329.252380 
z"/>
<path fill="#258073" opacity="1.000000" stroke="none" 
	d="
M132.049225,330.230652 
	C132.197739,330.209351 132.461060,330.423492 132.865204,330.851624 
	C132.725357,330.865784 132.444687,330.665955 132.049225,330.230652 
z"/>
<path fill="#258073" opacity="1.000000" stroke="none" 
	d="
M133.022369,331.251526 
	C133.196747,331.212616 133.453918,331.432007 133.855774,331.860840 
	C133.702026,331.883453 133.403595,331.696655 133.022369,331.251526 
z"/>
<path fill="#267C74" opacity="1.000000" stroke="none" 
	d="
M202.066269,400.233734 
	C202.218887,400.211365 202.476761,400.427124 202.869659,400.858185 
	C202.726959,400.872925 202.449234,400.672424 202.066269,400.233734 
z"/>
<path fill="#1D7D75" opacity="1.000000" stroke="none" 
	d="
M179.009247,377.259460 
	C179.180786,377.216858 179.443085,377.428406 179.852448,377.846924 
	C179.699677,377.873810 179.399841,377.693726 179.009247,377.259460 
z"/>
<path fill="#1D7D75" opacity="1.000000" stroke="none" 
	d="
M180.051544,378.232178 
	C180.241409,378.152161 180.500153,378.354980 180.855438,378.816376 
	C180.716095,378.835663 180.438904,378.649017 180.051544,378.232178 
z"/>
<path fill="#1D7D75" opacity="1.000000" stroke="none" 
	d="
M181.061127,379.250671 
	C181.275696,379.151093 181.527969,379.351562 181.863251,379.816162 
	C181.709641,379.846100 181.427170,379.669556 181.061127,379.250671 
z"/>
<path fill="#1D7D75" opacity="1.000000" stroke="none" 
	d="
M182.078796,380.241455 
	C182.275818,380.162994 182.528381,380.373596 182.868271,380.848877 
	C182.727386,380.864563 182.453629,380.670258 182.078796,380.241455 
z"/>
<path fill="#1D7D75" opacity="1.000000" stroke="none" 
	d="
M183.027039,381.229919 
	C183.207199,381.130096 183.442245,381.293549 183.794098,381.654572 
	C183.571503,381.900085 183.295181,381.780457 183.027039,381.229919 
z"/>
<path fill="#267C74" opacity="1.000000" stroke="none" 
	d="
M199.027145,397.259247 
	C199.205246,397.216553 199.462860,397.431122 199.859009,397.857147 
	C199.700592,397.884583 199.403610,397.700531 199.027145,397.259247 
z"/>
<path fill="#267C74" opacity="1.000000" stroke="none" 
	d="
M200.009064,398.263550 
	C200.194107,398.210754 200.462601,398.415436 200.863525,398.838257 
	C200.694809,398.877960 200.393677,398.699524 200.009064,398.263550 
z"/>
<path fill="#267C74" opacity="1.000000" stroke="none" 
	d="
M201.039948,399.249512 
	C201.208572,399.207703 201.471954,399.410797 201.869720,399.826233 
	C201.714310,399.857178 201.424515,399.675812 201.039948,399.249512 
z"/>
<path fill="#1D7D75" opacity="1.000000" stroke="none" 
	d="
M178.007904,376.261292 
	C178.180328,376.222351 178.443298,376.439789 178.851318,376.869629 
	C178.697083,376.893890 178.397766,376.705750 178.007904,376.261292 
z"/>
<path fill="#267C74" opacity="1.000000" stroke="none" 
	d="
M203.018845,401.251465 
	C203.192657,401.211090 203.452927,401.428711 203.860397,401.855255 
	C203.706833,401.879272 203.406067,401.694366 203.018845,401.251465 
z"/>
<path fill="#267C74" opacity="1.000000" stroke="none" 
	d="
M204.044006,402.229797 
	C204.194916,402.202484 204.460083,402.408905 204.865051,402.826752 
	C204.722656,402.846619 204.440460,402.655060 204.044006,402.229797 
z"/>
<path fill="#267C74" opacity="1.000000" stroke="none" 
	d="
M205.050140,403.243469 
	C205.220810,403.204529 205.479218,403.412628 205.867111,403.835327 
	C205.710373,403.863495 205.424133,403.677032 205.050140,403.243469 
z"/>
<path fill="#267C74" opacity="1.000000" stroke="none" 
	d="
M206.029755,404.270752 
	C206.218536,404.235626 206.487259,404.469116 206.881683,404.941956 
	C206.708145,404.967346 206.408936,404.753357 206.029755,404.270752 
z"/>
<path fill="#267C74" opacity="1.000000" stroke="none" 
	d="
M207.938751,406.248108 
	C208.113403,406.197876 208.407257,406.401855 208.849731,406.831238 
	C208.684875,406.871857 208.371429,406.687103 207.938751,406.248108 
z"/>
<path fill="#267C74" opacity="1.000000" stroke="none" 
	d="
M209.038544,407.249237 
	C209.206039,407.211304 209.467941,407.419006 209.863342,407.840912 
	C209.708908,407.868408 209.420944,407.681641 209.038544,407.249237 
z"/>
<path fill="#267C74" opacity="1.000000" stroke="none" 
	d="
M210.020813,408.264282 
	C210.208359,408.212646 210.474136,408.420441 210.870087,408.847839 
	C210.699844,408.886200 210.399445,408.704956 210.020813,408.264282 
z"/>
<path fill="#267E75" opacity="1.000000" stroke="none" 
	d="
M160.012909,358.262268 
	C160.196472,358.214935 160.463959,358.426453 160.864380,358.858948 
	C160.697144,358.893677 160.396988,358.707397 160.012909,358.262268 
z"/>
<path fill="#1D7D75" opacity="1.000000" stroke="none" 
	d="
M177.019485,375.262634 
	C177.191376,375.225037 177.449203,375.443512 177.851868,375.871399 
	C177.699615,375.893463 177.402527,375.706055 177.019485,375.262634 
z"/>
<path fill="#1D7D75" opacity="1.000000" stroke="none" 
	d="
M176.015976,374.268158 
	C176.197922,374.220795 176.461365,374.430206 176.857651,374.856506 
	C176.692825,374.890533 176.395142,374.707733 176.015976,374.268158 
z"/>
<path fill="#1D7D75" opacity="1.000000" stroke="none" 
	d="
M174.995178,373.265472 
	C175.165634,373.222382 175.433136,373.431366 175.846283,373.850586 
	C175.692017,373.879700 175.392120,373.698639 174.995178,373.265472 
z"/>
<path fill="#1D7D75" opacity="1.000000" stroke="none" 
	d="
M174.008652,372.254944 
	C174.167496,372.228424 174.424286,372.456055 174.841019,372.886169 
	C174.702850,372.895447 174.404724,372.702240 174.008652,372.254944 
z"/>
<path fill="#1D7D75" opacity="1.000000" stroke="none" 
	d="
M172.996292,371.266937 
	C173.166702,371.229980 173.434631,371.447662 173.846222,371.882629 
	C173.691177,371.907166 173.392487,371.714355 172.996292,371.266937 
z"/>
<path fill="#1D7D75" opacity="1.000000" stroke="none" 
	d="
M172.007721,370.255249 
	C172.166245,370.228912 172.423279,370.456543 172.840683,370.886414 
	C172.702774,370.895538 172.404495,370.702393 172.007721,370.255249 
z"/>
<path fill="#1D7D75" opacity="1.000000" stroke="none" 
	d="
M171.030350,369.257935 
	C171.208542,369.221954 171.463348,369.445038 171.851807,369.886353 
	C171.692627,369.908722 171.399796,369.712830 171.030350,369.257935 
z"/>
<path fill="#267E75" opacity="1.000000" stroke="none" 
	d="
M168.062714,366.233337 
	C168.212463,366.211914 168.471786,366.426605 168.869263,366.854736 
	C168.729019,366.868591 168.450653,366.669006 168.062714,366.233337 
z"/>
<path fill="#267E75" opacity="1.000000" stroke="none" 
	d="
M167.011414,365.261169 
	C167.195862,365.207367 167.464890,365.410553 167.867645,365.830597 
	C167.699585,365.871033 167.397766,365.694580 167.011414,365.261169 
z"/>
<path fill="#267E75" opacity="1.000000" stroke="none" 
	d="
M166.020203,364.253296 
	C166.196106,364.211884 166.456131,364.428009 166.858246,364.855621 
	C166.701660,364.881683 166.402985,364.696259 166.020203,364.253296 
z"/>
<path fill="#267E75" opacity="1.000000" stroke="none" 
	d="
M165.033081,363.243713 
	C165.197861,363.209534 165.462952,363.421997 165.865875,363.850800 
	C165.713608,363.874847 165.423508,363.682617 165.033081,363.243713 
z"/>
<path fill="#267E75" opacity="1.000000" stroke="none" 
	d="
M164.019257,362.257629 
	C164.194702,362.214813 164.456314,362.428680 164.861450,362.853149 
	C164.705124,362.880646 164.405273,362.697510 164.019257,362.257629 
z"/>
<path fill="#267E75" opacity="1.000000" stroke="none" 
	d="
M163.011444,361.261841 
	C163.195114,361.213013 163.463226,361.422363 163.864258,361.851868 
	C163.696762,361.888031 163.396317,361.704041 163.011444,361.261841 
z"/>
<path fill="#267E75" opacity="1.000000" stroke="none" 
	d="
M162.006088,360.255951 
	C162.178284,360.214996 162.443146,360.429749 162.854431,360.855499 
	C162.700150,360.881561 162.399460,360.696625 162.006088,360.255951 
z"/>
<path fill="#267E75" opacity="1.000000" stroke="none" 
	d="
M161.017609,359.255127 
	C161.187988,359.219757 161.447342,359.441589 161.854828,359.873505 
	C161.704163,359.893188 161.405380,359.702759 161.017609,359.255127 
z"/>
<path fill="#218072" opacity="1.000000" stroke="none" 
	d="
M59.007019,257.258087 
	C59.181511,257.218750 59.446175,257.437408 59.854366,257.871460 
	C59.697666,257.896576 59.397430,257.706329 59.007019,257.258087 
z"/>
<path fill="#218072" opacity="1.000000" stroke="none" 
	d="
M50.948299,249.248367 
	C51.105213,249.213623 51.396072,249.421936 51.845657,249.848328 
	C51.697002,249.874756 51.389626,249.683090 50.948299,249.248367 
z"/>
<path fill="#218072" opacity="1.000000" stroke="none" 
	d="
M52.030281,250.247314 
	C52.194096,250.214218 52.454567,250.430054 52.858948,250.856506 
	C52.710888,250.876816 52.418915,250.686523 52.030281,250.247314 
z"/>
<path fill="#218072" opacity="1.000000" stroke="none" 
	d="
M53.029793,251.246918 
	C53.193562,251.213455 53.454323,251.428635 53.858955,251.854233 
	C53.710812,251.874939 53.418797,251.685257 53.029793,251.246918 
z"/>
<path fill="#218072" opacity="1.000000" stroke="none" 
	d="
M54.031681,252.247192 
	C54.195431,252.215561 54.455978,252.433075 54.858944,252.863220 
	C54.710400,252.882690 54.419441,252.689529 54.031681,252.247192 
z"/>
<path fill="#218072" opacity="1.000000" stroke="none" 
	d="
M55.012829,253.256241 
	C55.186035,253.216797 55.447384,253.434296 55.853680,253.863007 
	C55.699409,253.887207 55.400192,253.700211 55.012829,253.256241 
z"/>
<path fill="#218072" opacity="1.000000" stroke="none" 
	d="
M56.009369,254.260651 
	C56.186897,254.215195 56.452084,254.426025 56.857140,254.850830 
	C56.697014,254.882172 56.397026,254.699554 56.009369,254.260651 
z"/>
<path fill="#218072" opacity="1.000000" stroke="none" 
	d="
M57.033783,255.250381 
	C57.198223,255.215973 57.459728,255.428772 57.861885,255.853668 
	C57.711975,255.876389 57.421410,255.686996 57.033783,255.250381 
z"/>
<path fill="#218072" opacity="1.000000" stroke="none" 
	d="
M58.040985,256.240356 
	C58.193836,256.218048 58.450325,256.440247 58.855598,256.870300 
	C58.717796,256.880371 58.431210,256.682617 58.040985,256.240356 
z"/>
<path fill="#218072" opacity="1.000000" stroke="none" 
	d="
M49.030296,247.258087 
	C49.199104,247.237976 49.463818,247.478317 49.862263,247.953766 
	C49.706070,247.965439 49.416138,247.741974 49.030296,247.258087 
z"/>
<path fill="#218072" opacity="1.000000" stroke="none" 
	d="
M60.008694,258.256531 
	C60.178246,258.217926 60.440155,258.434692 60.851990,258.859009 
	C60.701630,258.881653 60.401340,258.696777 60.008694,258.256531 
z"/>
<path fill="#218072" opacity="1.000000" stroke="none" 
	d="
M61.029171,259.246826 
	C61.192822,259.211945 61.457535,259.421844 61.859924,259.846375 
	C61.708473,259.871185 61.419353,259.681396 61.029171,259.246826 
z"/>
<path fill="#218072" opacity="1.000000" stroke="none" 
	d="
M62.023262,260.259338 
	C62.199509,260.217621 62.457825,260.432556 62.856277,260.858521 
	C62.699383,260.885010 62.402351,260.700500 62.023262,260.259338 
z"/>
<path fill="#218072" opacity="1.000000" stroke="none" 
	d="
M63.011528,261.262817 
	C63.191235,261.217712 63.455517,261.430115 63.856598,261.858887 
	C63.694298,261.890289 63.395199,261.705292 63.011528,261.262817 
z"/>
<path fill="#218072" opacity="1.000000" stroke="none" 
	d="
M64.016754,262.261169 
	C64.188705,262.224731 64.447723,262.445740 64.852821,262.877808 
	C64.700539,262.898773 64.402184,262.708679 64.016754,262.261169 
z"/>
<path fill="#218072" opacity="1.000000" stroke="none" 
	d="
M65.005875,263.257935 
	C65.174667,263.221924 65.437302,263.441864 65.849579,263.871918 
	C65.699394,263.892639 65.399551,263.703247 65.005875,263.257935 
z"/>
<path fill="#218072" opacity="1.000000" stroke="none" 
	d="
M66.006577,264.259521 
	C66.178589,264.219238 66.442139,264.434570 66.851715,264.860626 
	C66.697868,264.885956 66.397987,264.700531 66.006577,264.259521 
z"/>
<path fill="#218072" opacity="1.000000" stroke="none" 
	d="
M67.009789,265.262939 
	C67.189018,265.217896 67.454071,265.430420 67.857300,265.859039 
	C67.695526,265.890259 67.395569,265.705414 67.009789,265.262939 
z"/>
<path fill="#218072" opacity="1.000000" stroke="none" 
	d="
M41.024864,239.251785 
	C41.193722,239.214569 41.455536,239.428848 41.858940,239.855408 
	C41.706291,239.879547 41.412056,239.691406 41.024864,239.251785 
z"/>
<path fill="#218072" opacity="1.000000" stroke="none" 
	d="
M32.200176,230.322922 
	C32.414680,230.261078 32.611206,230.470886 32.883842,230.900238 
	C32.659771,231.024368 32.400524,230.849304 32.200176,230.322922 
z"/>
<path fill="#218072" opacity="1.000000" stroke="none" 
	d="
M33.019428,231.247314 
	C33.176792,231.216782 33.442654,231.430008 33.855942,231.853394 
	C33.711559,231.872726 33.419743,231.681900 33.019428,231.247314 
z"/>
<path fill="#218072" opacity="1.000000" stroke="none" 
	d="
M34.026546,232.250168 
	C34.196270,232.211594 34.457695,232.423996 34.858917,232.848511 
	C34.705231,232.874130 34.411743,232.687637 34.026546,232.250168 
z"/>
<path fill="#218072" opacity="1.000000" stroke="none" 
	d="
M35.028107,233.252975 
	C35.199543,233.212265 35.461052,233.422028 35.859650,233.844452 
	C35.703888,233.872543 35.411030,233.687988 35.028107,233.252975 
z"/>
<path fill="#218072" opacity="1.000000" stroke="none" 
	d="
M36.031940,234.254883 
	C36.204006,234.213638 36.465229,234.423157 36.863594,234.845093 
	C36.707523,234.873566 36.414310,234.689606 36.031940,234.254883 
z"/>
<path fill="#218072" opacity="1.000000" stroke="none" 
	d="
M37.045353,235.248337 
	C37.206203,235.226730 37.468204,235.455704 37.868084,235.908585 
	C37.719475,235.921295 37.432991,235.710114 37.045353,235.248337 
z"/>
<path fill="#218072" opacity="1.000000" stroke="none" 
	d="
M38.971397,237.245911 
	C39.131702,237.210846 39.413300,237.422592 39.848831,237.850815 
	C39.699406,237.875763 39.396046,237.684250 38.971397,237.245911 
z"/>
<path fill="#218072" opacity="1.000000" stroke="none" 
	d="
M40.024662,238.251633 
	C40.193470,238.214493 40.455292,238.428955 40.858898,238.855652 
	C40.706345,238.879669 40.412010,238.691437 40.024662,238.251633 
z"/>
<path fill="#208174" opacity="1.000000" stroke="none" 
	d="
M68.017471,266.259766 
	C68.190422,266.221893 68.450676,266.440857 68.854790,266.872253 
	C68.700691,266.895294 68.402733,266.705933 68.017471,266.259766 
z"/>
<path fill="#218072" opacity="1.000000" stroke="none" 
	d="
M42.025459,240.252258 
	C42.194149,240.215515 42.456097,240.430664 42.860428,240.858337 
	C42.708115,240.881943 42.413418,240.693054 42.025459,240.252258 
z"/>
<path fill="#218072" opacity="1.000000" stroke="none" 
	d="
M43.031219,241.242981 
	C43.191048,241.211548 43.452091,241.425522 43.857868,241.848587 
	C43.712547,241.867920 43.422489,241.678162 43.031219,241.242981 
z"/>
<path fill="#218072" opacity="1.000000" stroke="none" 
	d="
M44.030785,242.249878 
	C44.201458,242.210266 44.462612,242.420898 44.860973,242.844330 
	C44.705875,242.871445 44.413574,242.685791 44.030785,242.249878 
z"/>
<path fill="#218072" opacity="1.000000" stroke="none" 
	d="
M45.031914,243.253021 
	C45.203289,243.212662 45.463627,243.422745 45.860889,243.844971 
	C45.705498,243.872559 45.413189,243.688004 45.031914,243.253021 
z"/>
<path fill="#218072" opacity="1.000000" stroke="none" 
	d="
M46.031998,244.253418 
	C46.203423,244.213211 46.464092,244.423569 46.861671,244.846481 
	C46.706139,244.874023 46.413692,244.689011 46.031998,244.253418 
z"/>
<path fill="#218072" opacity="1.000000" stroke="none" 
	d="
M47.031761,245.251953 
	C47.201530,245.213242 47.461666,245.424774 47.860294,245.848022 
	C47.706566,245.873886 47.414345,245.688034 47.031761,245.251953 
z"/>
<path fill="#218072" opacity="1.000000" stroke="none" 
	d="
M48.031414,246.252548 
	C48.200642,246.215256 48.460968,246.428848 48.860794,246.854797 
	C48.707699,246.879272 48.415108,246.691345 48.031414,246.252548 
z"/>
<path fill="#258073" opacity="1.000000" stroke="none" 
	d="
M109.043266,307.248230 
	C109.209709,307.210663 109.470100,307.417511 109.863541,307.837341 
	C109.710144,307.864410 109.423683,307.678528 109.043266,307.248230 
z"/>
<path fill="#208174" opacity="1.000000" stroke="none" 
	d="
M87.021759,285.224915 
	C87.199249,285.129822 87.432884,285.294800 87.783699,285.655090 
	C87.560471,285.897247 87.286148,285.775452 87.021759,285.224915 
z"/>
<path fill="#258073" opacity="1.000000" stroke="none" 
	d="
M102.010498,300.226807 
	C102.153069,300.206604 102.430016,300.415680 102.856308,300.839417 
	C102.718719,300.854736 102.431793,300.655396 102.010498,300.226807 
z"/>
<path fill="#258073" opacity="1.000000" stroke="none" 
	d="
M103.025589,301.255798 
	C103.206825,301.211243 103.466667,301.425232 103.861801,301.854248 
	C103.699463,301.884308 103.401825,301.699310 103.025589,301.255798 
z"/>
<path fill="#258073" opacity="1.000000" stroke="none" 
	d="
M104.013977,302.261536 
	C104.195129,302.214172 104.460869,302.424835 104.863754,302.851807 
	C104.700127,302.885254 104.399345,302.702393 104.013977,302.261536 
z"/>
<path fill="#258073" opacity="1.000000" stroke="none" 
	d="
M105.033081,303.246460 
	C105.197311,303.211639 105.459908,303.424316 105.864998,303.848511 
	C105.715477,303.871338 105.423470,303.682648 105.033081,303.246460 
z"/>
<path fill="#258073" opacity="1.000000" stroke="none" 
	d="
M106.047485,304.233795 
	C106.198814,304.212189 106.456940,304.432404 106.861168,304.862427 
	C106.722939,304.873352 106.438614,304.674500 106.047485,304.233795 
z"/>
<path fill="#258073" opacity="1.000000" stroke="none" 
	d="
M107.012375,305.253113 
	C107.188988,305.210114 107.452126,305.424652 107.856781,305.852356 
	C107.698502,305.880493 107.398697,305.695557 107.012375,305.253113 
z"/>
<path fill="#258073" opacity="1.000000" stroke="none" 
	d="
M108.012466,306.262054 
	C108.196770,306.209503 108.464180,306.413574 108.863701,306.834869 
	C108.695732,306.874298 108.395660,306.696503 108.012466,306.262054 
z"/>
<path fill="#208174" opacity="1.000000" stroke="none" 
	d="
M86.053352,284.231995 
	C86.199905,284.212097 86.461472,284.426300 86.864609,284.852783 
	C86.726921,284.865387 86.447639,284.665741 86.053352,284.231995 
z"/>
<path fill="#258073" opacity="1.000000" stroke="none" 
	d="
M110.024612,308.262848 
	C110.210831,308.212677 110.473671,308.420349 110.864929,308.846436 
	C110.695976,308.883453 110.398605,308.702087 110.024612,308.262848 
z"/>
<path fill="#258073" opacity="1.000000" stroke="none" 
	d="
M111.021011,309.262543 
	C111.200172,309.219604 111.462242,309.434570 111.861412,309.865723 
	C111.700317,309.894714 111.402122,309.707581 111.021011,309.262543 
z"/>
<path fill="#258073" opacity="1.000000" stroke="none" 
	d="
M112.012360,310.255859 
	C112.183800,310.218567 112.445000,310.438690 112.854271,310.869446 
	C112.702263,310.891144 112.402199,310.702209 112.012360,310.255859 
z"/>
<path fill="#258073" opacity="1.000000" stroke="none" 
	d="
M113.021599,311.247986 
	C113.183907,311.213226 113.448288,311.425598 113.859299,311.847168 
	C113.711838,311.869293 113.417755,311.682190 113.021599,311.247986 
z"/>
<path fill="#258073" opacity="1.000000" stroke="none" 
	d="
M114.037018,312.242615 
	C114.203041,312.206696 114.466042,312.416809 114.863998,312.842194 
	C114.710632,312.867859 114.422310,312.678223 114.037018,312.242615 
z"/>
<path fill="#258073" opacity="1.000000" stroke="none" 
	d="
M115.022049,313.260864 
	C115.204727,313.216095 115.467331,313.430725 115.863876,313.863892 
	C115.699211,313.895020 115.400597,313.707672 115.022049,313.260864 
z"/>
<path fill="#258073" opacity="1.000000" stroke="none" 
	d="
M116.015366,314.255737 
	C116.185753,314.218445 116.446396,314.437866 116.856506,314.866089 
	C116.705864,314.887360 116.405746,314.699890 116.015366,314.255737 
z"/>
<path fill="#208174" opacity="1.000000" stroke="none" 
	d="
M78.029037,276.225708 
	C78.172348,276.206909 78.442337,276.419159 78.857903,276.845917 
	C78.720886,276.859192 78.438293,276.658020 78.029037,276.225708 
z"/>
<path fill="#208174" opacity="1.000000" stroke="none" 
	d="
M69.008080,267.255859 
	C69.177513,267.217926 69.438805,267.435638 69.849777,267.861023 
	C69.699615,267.882935 69.399780,267.697205 69.008080,267.255859 
z"/>
<path fill="#208174" opacity="1.000000" stroke="none" 
	d="
M70.010513,268.263275 
	C70.190765,268.217377 70.457291,268.428711 70.859703,268.858185 
	C70.695992,268.891052 70.396393,268.705780 70.010513,268.263275 
z"/>
<path fill="#208174" opacity="1.000000" stroke="none" 
	d="
M71.019234,269.257629 
	C71.189240,269.222229 71.447380,269.443268 71.853088,269.873505 
	C71.702896,269.893158 71.405136,269.703644 71.019234,269.257629 
z"/>
<path fill="#208174" opacity="1.000000" stroke="none" 
	d="
M72.007141,270.257874 
	C72.178658,270.218964 72.442703,270.435974 72.852890,270.864960 
	C72.699234,270.889221 72.399452,270.701508 72.007141,270.257874 
z"/>
<path fill="#208174" opacity="1.000000" stroke="none" 
	d="
M73.012299,271.258453 
	C73.184776,271.219360 73.447037,271.436401 73.854034,271.865295 
	C73.699867,271.889648 73.400970,271.702118 73.012299,271.258453 
z"/>
<path fill="#208174" opacity="1.000000" stroke="none" 
	d="
M74.012421,272.258636 
	C74.184837,272.220428 74.447144,272.438812 74.854172,272.869934 
	C74.700027,272.893524 74.401176,272.704376 74.012421,272.258636 
z"/>
<path fill="#208174" opacity="1.000000" stroke="none" 
	d="
M75.010651,273.255798 
	C75.179810,273.217804 75.440651,273.434509 75.850021,273.858765 
	C75.699806,273.881073 75.401070,273.695770 75.010651,273.255798 
z"/>
<path fill="#208174" opacity="1.000000" stroke="none" 
	d="
M76.015121,274.267395 
	C76.196526,274.233429 76.465874,274.462921 76.864822,274.926697 
	C76.697311,274.950958 76.400185,274.740906 76.015121,274.267395 
z"/>
<path fill="#258073" opacity="1.000000" stroke="none" 
	d="
M117.022003,315.244904 
	C117.186691,315.205566 117.453453,315.412170 117.863571,315.828918 
	C117.712646,315.856293 117.418365,315.673553 117.022003,315.244904 
z"/>
<path fill="#208174" opacity="1.000000" stroke="none" 
	d="
M79.026321,277.255646 
	C79.199776,277.219116 79.455826,277.440643 79.855743,277.872864 
	C79.702713,277.893616 79.405807,277.703674 79.026321,277.255646 
z"/>
<path fill="#208174" opacity="1.000000" stroke="none" 
	d="
M80.008118,278.258179 
	C80.179222,278.220764 80.442810,278.439667 80.852890,278.871216 
	C80.699783,278.894104 80.400185,278.704315 80.008118,278.258179 
z"/>
<path fill="#208174" opacity="1.000000" stroke="none" 
	d="
M81.009964,279.255981 
	C81.179787,279.215363 81.442543,279.428802 81.854340,279.849152 
	C81.703224,279.874054 81.403061,279.692078 81.009964,279.255981 
z"/>
<path fill="#208174" opacity="1.000000" stroke="none" 
	d="
M82.052170,280.229980 
	C82.198624,280.207977 82.458389,280.418213 82.858536,280.837616 
	C82.721100,280.851929 82.443291,280.657043 82.052170,280.229980 
z"/>
<path fill="#208174" opacity="1.000000" stroke="none" 
	d="
M83.029572,281.261719 
	C83.211395,281.217102 83.469887,281.430481 83.861816,281.859039 
	C83.698914,281.889374 83.402580,281.704559 83.029572,281.261719 
z"/>
<path fill="#208174" opacity="1.000000" stroke="none" 
	d="
M84.017242,282.259460 
	C84.190346,282.221375 84.450829,282.440094 84.855026,282.871216 
	C84.700699,282.894531 84.402664,282.705414 84.017242,282.259460 
z"/>
<path fill="#208174" opacity="1.000000" stroke="none" 
	d="
M85.008911,283.256317 
	C85.179611,283.215240 85.442383,283.429199 85.854416,283.850220 
	C85.702774,283.875305 85.401878,283.693329 85.008911,283.256317 
z"/>
<path fill="#FBFEFE" opacity="1.000000" stroke="none" 
	d="
M69.877693,76.066429 
	C78.978935,53.795593 103.048004,49.769844 118.515022,58.375610 
	C132.055923,65.909698 139.152191,82.395020 134.990646,97.097038 
	C130.405701,113.294884 116.442390,123.114670 100.076355,122.593544 
	C79.407745,121.935417 61.467705,100.578041 69.877693,76.066429 
z"/>
</svg>