<?xml version="1.0" encoding="UTF-8"?>
<svg xmlns="http://www.w3.org/2000/svg" version="1.1" width="500" height="500" style="background: transparent;">

<path d="M0 0 C0.73800858 -0.00367669 1.47601716 -0.00735338 2.23638964 -0.01114148 C4.71656005 -0.02217989 7.19668857 -0.02602248 9.67687988 -0.02983093 C11.45255669 -0.03609567 13.22823219 -0.04274248 15.00390625 -0.04974365 C20.84345587 -0.07079229 26.68300577 -0.08114952 32.52258301 -0.09111023 C34.53414422 -0.09515804 36.5457053 -0.09927497 38.55726624 -0.10346031 C48.01168042 -0.12251688 57.46608679 -0.13674469 66.92051649 -0.14507228 C77.82362592 -0.15483483 88.72653179 -0.18112674 99.62956953 -0.22157317 C108.06200565 -0.25177733 116.49438358 -0.2665454 124.92687273 -0.26985329 C129.96028706 -0.27219966 134.99348406 -0.28110567 140.02684021 -0.30631447 C144.76782093 -0.32967421 149.50844248 -0.33379674 154.24946594 -0.32355309 C155.983197 -0.32305947 157.7169462 -0.32932827 159.45062256 -0.34310913 C172.95787633 -0.44440936 182.94618933 0.62032303 193.0423851 10.3698864 C193.95366291 11.28639032 194.86494072 12.20289425 195.80383301 13.14717102 C196.89994494 14.22399054 197.99728995 15.29955585 199.0956459 16.37408638 C203.02385485 20.23299735 206.91194633 24.13134476 210.80041504 28.03022766 C212.28934083 29.51943601 213.77848782 31.00842324 215.26783752 32.49720764 C219.28382154 36.51290636 223.29672865 40.53166687 227.30906534 44.55100942 C231.51262178 48.76084401 235.71903615 52.96782108 239.92514038 57.17510986 C247.87770182 65.1307715 255.82771207 73.0889774 263.77679527 81.04811424 C272.83170127 90.11422219 281.88946846 99.17746929 290.94746995 108.24048436 C309.56942947 126.87287857 328.1878163 145.50883935 346.80383301 164.14717102 C345.2684282 167.78530177 343.093817 170.10392077 340.31137085 172.88014221 C339.85230414 173.34091778 339.39323742 173.80169334 338.92025959 174.2764318 C337.38339498 175.81658624 335.83949971 177.34949116 334.29553223 178.88252258 C333.19137339 179.98611719 332.08765492 181.09015255 330.98434448 182.19459534 C327.98902051 185.19049339 324.98756783 188.18018274 321.98498678 191.16880512 C318.84771694 194.29357686 315.71610573 197.42400904 312.58389282 200.55384827 C306.65224222 206.4792814 300.71551156 212.39959761 294.77694428 218.31809783 C288.01613265 225.05655878 281.26099566 231.80069611 274.50633216 238.54531908 C260.61180934 252.41893386 246.71016653 266.28539548 232.80383301 280.14717102 C228.89356278 276.85050501 225.06926459 273.53907865 221.48010254 269.88935852 C220.7088504 269.10834778 219.93759827 268.32733704 219.14297485 267.5226593 C218.33238617 266.69749817 217.52179749 265.87233704 216.68664551 265.02217102 C214.927826 263.24583714 213.16870202 261.46980469 211.40930176 259.69404602 C208.6655263 256.91934233 205.92414304 254.14240167 203.18811035 251.36006165 C200.52782192 248.65721243 197.85798206 245.96409561 195.18664551 243.27217102 C194.38010529 242.44700989 193.57356506 241.62184875 192.74258423 240.77168274 C184.08904371 232.07969897 175.00561383 225.21482995 162.30383301 224.83467102 C151.4886342 225.3098555 142.09852074 228.24109021 134.49133301 236.33467102 C126.99813555 246.17616398 125.18625474 256.08138754 126.80383301 268.14717102 C128.40280054 275.29648134 131.66269723 280.29082294 136.62390137 285.61079407 C137.10188895 286.12398288 137.57987654 286.63717169 138.07234859 287.16591167 C144.20729104 293.71008845 150.53742243 300.06500977 156.87023926 306.41670227 C157.52065626 307.06994665 158.17107327 307.72319103 158.84119987 308.3962307 C162.27358997 311.84346469 165.70872869 315.28792984 169.1463623 318.72993469 C172.66859601 322.25767762 176.18142779 325.79463178 179.69221592 329.33376026 C182.42311267 332.08336761 185.16077914 334.82615961 187.90028191 337.56719017 C189.19799031 338.86789901 190.49322947 340.17107681 191.78579903 341.47689247 C208.98010934 358.92127272 208.98010934 358.92127272 231.80383301 365.45967102 C248.24543915 365.45967102 257.8713396 356.26816564 268.9460628 345.25513554 C270.80563594 343.39416062 272.66048336 341.52855177 274.51525879 339.66279602 C275.86604022 338.31144941 277.21726426 336.96054508 278.56889343 335.61004639 C282.21110516 331.96840499 285.84714713 328.32066063 289.48205805 324.67173386 C293.29142833 320.84980275 297.1065193 317.03359054 300.92098999 313.2167511 C308.13183058 305.99971141 315.3375607 298.77759181 322.54143894 291.55360317 C330.74793935 283.32469476 338.96016616 275.10151122 347.17286325 266.87878799 C364.05620294 249.97458188 380.93238967 233.06324986 397.80383301 216.14717102 C401.90897873 219.61138136 405.91018992 223.1233048 409.74182129 226.89228821 C410.6461087 227.7805127 411.55039612 228.66873718 412.48208618 229.58387756 C413.4465322 230.53683586 414.41054133 231.49023649 415.37414551 232.44404602 C415.86898312 232.93355995 416.36382072 233.42307388 416.87365341 233.92742157 C419.48914076 236.51636221 422.10106245 239.10884599 424.71057129 241.70381165 C426.85277113 243.83266242 429.00200737 245.95400024 431.15783691 248.06904602 C433.78375967 250.64533133 436.39689149 253.2339754 439.00164413 255.83165741 C439.98684071 256.81020086 440.9762389 257.78453528 441.97012711 258.75424957 C449.71650064 266.32272636 456.20179237 273.90907918 456.80383301 285.14717102 C456.89664551 286.2686554 456.89664551 286.2686554 456.99133301 287.41279602 C457.48797736 297.28360243 453.91258479 306.36426016 447.38410068 313.75425351 C445.69326414 315.52317267 443.97369984 317.25830211 442.23995972 318.98519897 C441.58206219 319.64833318 440.92416467 320.31146738 440.24633086 320.99469656 C438.04806637 323.20792187 435.8427514 325.41398032 433.6373291 327.62007141 C432.0565327 329.20849188 430.47613915 330.79731335 428.89611816 332.38650513 C424.60742253 336.69712737 420.31218877 341.00117593 416.01505995 345.30338979 C413.32910176 347.99299354 410.64444598 350.68389041 407.96022415 353.37522697 C400.51902848 360.83587186 393.07636971 368.2950481 385.62689781 375.74742985 C385.15080089 376.22371434 384.67470398 376.69999882 384.18417988 377.19071617 C383.21913885 378.15612343 382.25409656 379.12152942 381.28905301 380.08693416 C380.81004857 380.5661214 380.33104414 381.04530865 379.83752441 381.53901672 C379.11813269 382.25867927 379.11813269 382.25867927 378.3842078 382.99288046 C370.61533365 390.76529544 362.85826887 398.54938116 355.10634284 406.33869619 C347.13546091 414.34771292 339.15498036 422.3470646 331.16537535 430.33741182 C326.68448074 434.81909882 322.20764041 439.30466112 317.74061203 443.80017281 C313.53765601 448.02932783 309.32285193 452.24630763 305.09877014 456.45435905 C303.55375738 457.99755889 302.01297903 459.54501205 300.47687149 461.09707642 C289.96669425 471.70971107 281.3292263 480.15437587 265.67883301 480.45967102 C248.05518183 480.44054029 238.67026661 468.16257498 226.95414734 456.4513855 C225.89745585 455.39872033 224.84055785 454.34626244 223.78347379 453.29399151 C220.90609694 450.42845312 218.03177083 447.55987233 215.15800965 444.69070852 C212.04797828 441.58668112 208.93515555 438.48545481 205.82278442 435.3837738 C198.32612989 427.91151815 190.83431053 420.43442414 183.34338066 412.95643011 C181.22616087 410.84292873 179.10881415 408.7295546 176.99142289 406.616225 C163.82428261 393.47430662 150.65873387 380.33079608 137.49796581 367.18249607 C134.45744438 364.14490393 131.41690673 361.10732802 128.37634277 358.06977844 C127.62070257 357.31488429 126.86506237 356.55999014 126.08652399 355.78222042 C113.82854077 343.53690788 101.56030108 331.30192408 89.28786286 319.07110036 C76.67289 306.49855241 64.06736677 293.91659189 51.4709757 281.32542652 C44.40420082 274.26206296 37.33332605 267.2029127 30.251791 260.15434456 C24.22611012 254.1566715 18.20900747 248.15055697 12.20291116 242.13326926 C9.14022433 239.06539973 6.07365987 236.00169427 2.99600792 232.94883156 C0.17570825 230.15105952 -2.63268044 227.34186813 -5.4322563 224.52336346 C-6.44382753 223.50899742 -7.4595951 222.4987941 -8.48005853 221.49337418 C-16.32863827 213.75342072 -23.25702621 205.51810673 -23.34855878 194.01220596 C-23.34905654 193.31504002 -23.3495543 192.61787409 -23.35006714 191.89958191 C-23.35444939 191.15607864 -23.35883165 190.41257538 -23.3633467 189.64654171 C-23.37673225 187.14788825 -23.38291305 184.64927006 -23.38903809 182.15058899 C-23.39693935 180.36181479 -23.40520831 178.57304217 -23.41381836 176.78427124 C-23.44003923 170.90264915 -23.45534768 165.02101995 -23.46960449 159.13935852 C-23.47496445 157.11413188 -23.48034196 155.08890529 -23.48573685 153.06367874 C-23.5073671 144.63791712 -23.52610293 136.21215741 -23.53735924 127.78637505 C-23.55359205 115.71506743 -23.58675207 103.64408203 -23.64376009 91.57289588 C-23.68248335 83.08359298 -23.70199486 74.59437616 -23.7072798 66.10498726 C-23.71093043 61.0358116 -23.72292094 55.96697959 -23.75538254 50.89789963 C-23.78550447 46.12568247 -23.79176026 41.35401616 -23.77999878 36.58172417 C-23.77977838 34.83424385 -23.78805562 33.08673766 -23.80565262 31.33934593 C-23.96927396 14.1499884 -23.96927396 14.1499884 -18.19616699 7.14717102 C-16.06335449 4.99092102 -16.06335449 4.99092102 -14.07116699 3.64717102 C-13.40858887 3.18310852 -12.74601074 2.71904602 -12.06335449 2.24092102 C-8.11546443 -0.07165056 -4.42606813 -0.00117934 0 0 Z " fill="#027E6F" transform="translate(25.1961669921875,1.8528289794921875)"/>
<path d="M0 0 C8.62513032 4.50987206 14.77454193 10.83039189 18.4921875 19.953125 C21.31054322 29.17204558 21.57722744 37.62234799 17.8515625 46.5703125 C12.38538182 56.59651557 5.00674135 64.06005917 -3.03125 72.03515625 C-4.34118936 73.34457622 -5.65060885 74.65451645 -6.95953369 75.96495056 C-9.68821807 78.69354571 -12.42195156 81.41694248 -15.15966797 84.13647461 C-18.67449598 87.62847042 -22.17798417 91.13159119 -25.67805099 94.63837528 C-28.37302746 97.33668349 -31.07294729 100.02999893 -33.77451324 102.7217083 C-35.06928169 104.01262168 -36.3626973 105.3048934 -37.65474701 106.59852791 C-39.45212578 108.39627559 -41.25583034 110.18741549 -43.06152344 111.97680664 C-43.59660019 112.51436081 -44.13167694 113.05191498 -44.68296814 113.60575867 C-48.38061705 117.25 -48.38061705 117.25 -50.609375 117.25 C-50.93714227 118.06449379 -50.93714227 118.06449379 -51.27153111 118.89544201 C-53.057608 122.03887425 -55.47155366 124.39464786 -58.01487732 126.92292786 C-58.57235517 127.48493682 -59.12983302 128.04694579 -59.70420414 128.62598532 C-61.57466384 130.50911114 -63.45220624 132.38500955 -65.32983398 134.26098633 C-66.67227133 135.60940782 -68.01429724 136.95823902 -69.35594177 138.30744934 C-73.00443818 141.9736317 -76.6594188 145.63328306 -80.3161304 149.29126954 C-82.60251861 151.57907928 -84.88747674 153.8683072 -87.17192268 156.15805626 C-95.14820037 164.15284795 -103.1296406 172.14244371 -111.1159668 180.12719727 C-118.54811154 187.5581426 -125.969054 195.00014454 -133.384767 202.44748479 C-139.75907486 208.84800274 -146.14113017 215.24072583 -152.52919441 221.62751406 C-156.34094844 225.43875954 -160.14957184 229.25300639 -163.95043755 233.0751133 C-167.53088919 236.67502497 -171.12094837 240.26507772 -174.71837807 243.84802055 C-176.03148892 245.15905134 -177.3412455 246.47345245 -178.64722443 247.79158783 C-189.49829959 258.73703063 -199.67861983 268.45408013 -215.984375 268.625 C-222.50222884 268.52235663 -227.0797025 267.65695753 -232.609375 264.25 C-233.33253906 263.82589844 -234.05570312 263.40179688 -234.80078125 262.96484375 C-246.63967185 255.57325814 -256.31847421 244.72870787 -266.15625 234.94140625 C-266.8346418 234.26708998 -267.5130336 233.5927737 -268.21198273 232.89802361 C-271.79447695 229.33623045 -275.37379961 225.77128411 -278.95068359 222.20385742 C-282.62260294 218.54304195 -286.30606643 214.89407068 -289.99216843 211.24754429 C-292.84889063 208.4170564 -295.69660562 205.57763271 -298.54203033 202.73579216 C-299.89571172 201.38694943 -301.25274004 200.04145624 -302.61330414 198.69955635 C-313.33864448 188.11241223 -322.95497765 178.21473829 -323.171875 162.25 C-323.20573609 152.20199376 -320.09681863 144.4704199 -313.45703125 136.74609375 C-306.9434354 130.53013145 -299.63280881 126.89453099 -290.609375 126.25 C-289.92230469 126.1984375 -289.23523438 126.146875 -288.52734375 126.09375 C-275.8875683 125.56248098 -267.07608745 131.40291165 -257.93814087 139.6652832 C-255.22300456 142.2926077 -252.55899544 144.96212483 -249.91015625 147.65625 C-248.94005223 148.63196882 -247.96926923 149.60701297 -246.99784851 150.5814209 C-244.47758034 153.11298985 -241.96646434 155.65344052 -239.45733643 158.19604492 C-236.88146722 160.80293882 -234.29678171 163.40106133 -231.71289062 166 C-226.6698682 171.07492487 -221.63649048 176.1593134 -216.609375 181.25 C-210.37961509 176.1064184 -204.71279383 170.47507285 -199.02416992 164.74658203 C-197.97244126 163.69129137 -196.92047335 162.6362391 -195.86828613 161.58140564 C-193.61560486 159.32220834 -191.36444357 157.0615114 -189.11443138 154.79965591 C-185.55859957 151.22545362 -181.99835506 147.65566878 -178.43733215 144.0866394 C-168.31650971 133.94171862 -158.20169611 123.79081894 -148.09106445 113.63574219 C-142.49750226 108.01766934 -136.90038123 102.4031667 -131.29938585 96.79250419 C-127.75579629 93.24236095 -124.21676619 89.68775241 -120.6810087 86.12980962 C-118.48799648 83.92510784 -116.29085377 81.72455976 -114.09249115 79.52519417 C-113.07081256 78.50135986 -112.05086614 77.4757938 -111.03274727 76.44841957 C-109.64806268 75.05163098 -108.25667968 73.66149207 -106.86491394 72.27175903 C-106.08679446 71.49049715 -105.30867498 70.70923527 -104.50697613 69.90429878 C-102.609375 68.25 -102.609375 68.25 -100.609375 68.25 C-100.39529495 67.71289398 -100.1812149 67.17578796 -99.96064758 66.62240601 C-98.1135383 63.37946805 -95.59891927 60.91971393 -92.98901367 58.29150391 C-92.41463562 57.70558975 -91.84025757 57.1196756 -91.24847412 56.51600647 C-89.34718227 54.5804263 -87.43808917 52.65280867 -85.52734375 50.7265625 C-84.87241755 50.06473339 -84.21749134 49.40290428 -83.54271889 48.72101974 C-80.07108412 45.21354577 -76.59333582 41.7122661 -73.1105957 38.21582031 C-69.53578961 34.62453441 -65.98240574 31.01282492 -62.43369579 27.39577675 C-59.68374235 24.60075638 -56.91802436 21.82173312 -54.14800453 19.04661179 C-52.83258166 17.72335271 -51.52297666 16.39428094 -50.21968651 15.05907059 C-36.15633565 0.67447586 -20.33166095 -8.76574604 0 0 Z " fill="#FEFEFE" transform="translate(473.609375,99.75)"/>
<path d="M0 0 C6.2734292 4.66444088 11.63391287 13.17839398 13.1328125 20.87109375 C13.92692876 29.70441164 13.80764589 37.19332919 9.1328125 44.87109375 C8.2665625 46.41796875 8.2665625 46.41796875 7.3828125 47.99609375 C2.02226616 54.84568074 -4.2296737 60.02175201 -12.8671875 61.87109375 C-23.02604155 63.06025727 -32.25922287 62.95146301 -40.8671875 56.87109375 C-41.7746875 56.29359375 -42.6821875 55.71609375 -43.6171875 55.12109375 C-51.42073918 47.31754207 -55.12397283 38.86808632 -55.3046875 27.93359375 C-55.25710014 21.44907216 -54.39571346 16.36236227 -50.8671875 10.87109375 C-50.2484375 9.84628906 -50.2484375 9.84628906 -49.6171875 8.80078125 C-45.15216092 2.12861085 -38.91123189 -2.34019431 -31.6171875 -5.56640625 C-19.7564014 -7.34552417 -10.34608535 -6.25526917 0 0 Z " fill="#FDFEFD" transform="translate(115.8671875,62.12890625)"/>
<path d="M0 0 C64.68 0.33 129.36 0.66 196 1 C196 1.33 196 1.66 196 2 C195.09093179 2.00054477 194.18186357 2.00108953 193.24524784 2.00165081 C171.11051248 2.01662772 148.97597833 2.05911149 126.84135532 2.13209057 C116.1371337 2.16672187 105.4330406 2.19209366 94.72875977 2.19555664 C85.39728818 2.19859911 76.06604562 2.21912773 66.73466247 2.26052457 C61.79516355 2.28183047 56.85599003 2.29446752 51.91644478 2.28615379 C47.26317885 2.27859846 42.61057143 2.29449661 37.95742607 2.32806015 C36.25352799 2.33627557 34.5495642 2.33606446 32.84567261 2.32659721 C20.06065024 2.134296 20.06065024 2.134296 9 8 C4.09434994 13.42451698 2.87722391 17.92354648 2.84178162 25.11833191 C2.83684364 25.8477675 2.83190566 26.5772031 2.82681805 27.3287428 C2.81142817 29.77929952 2.8030784 32.22983001 2.79467773 34.68041992 C2.78510038 36.43453706 2.77509038 38.18865189 2.76467896 39.94276428 C2.73760836 44.71101482 2.71661046 49.47927527 2.69667697 54.24756026 C2.67483071 59.22839786 2.64743537 64.20920481 2.62062073 69.1900177 C2.57067544 78.62471472 2.52574342 88.05942874 2.48259836 97.49415904 C2.43324168 108.23406869 2.37831774 118.97394758 2.32291877 129.71382749 C2.20907053 151.80918969 2.10223767 173.90458123 2 196 C1.67 196 1.34 196 1 196 C0.67 131.32 0.34 66.64 0 0 Z " fill="transparent" transform="translate(0,0)"/>
</svg>