<svg xmlns="http://www.w3.org/2000/svg" xmlns:xlink="http://www.w3.org/1999/xlink" width="500" zoomAndPan="magnify" viewBox="0 0 375 374.999991" height="500" preserveAspectRatio="xMidYMid meet" version="1.0"><defs><clipPath id="b169a5a90b"><path d="M 0 0 L 361 0 L 361 361 L 0 361 Z M 0 0 " clip-rule="nonzero"/></clipPath><clipPath id="e09871f29a"><path d="M -10.046875 138.066406 L 138.246094 -10.226562 L 371.109375 222.640625 L 222.816406 370.929688 Z M -10.046875 138.066406 " clip-rule="nonzero"/></clipPath><clipPath id="f0d13390c0"><path d="M 156.277344 7.804688 L 352.863281 204.394531 C 357.648438 209.175781 360.332031 215.660156 360.332031 222.425781 C 360.332031 229.1875 357.648438 235.671875 352.863281 240.457031 L 240.632812 352.6875 C 235.851562 357.46875 229.367188 360.15625 222.601562 360.15625 C 215.839844 360.15625 209.355469 357.46875 204.570312 352.6875 L 7.984375 156.097656 C 3.203125 151.316406 0.515625 144.828125 0.515625 138.066406 C 0.515625 131.304688 3.203125 124.816406 7.984375 120.035156 L 120.214844 7.804688 C 124.996094 3.023438 131.480469 0.335938 138.246094 0.335938 C 145.007812 0.335938 151.492188 3.023438 156.277344 7.804688 Z M 156.277344 7.804688 " clip-rule="nonzero"/></clipPath><clipPath id="53cba241ce"><path d="M 0.480469 0.238281 L 360.480469 0.238281 L 360.480469 360.238281 L 0.480469 360.238281 Z M 0.480469 0.238281 " clip-rule="nonzero"/></clipPath><clipPath id="63c9852f25"><path d="M -10.046875 138.066406 L 138.246094 -10.226562 L 371.109375 222.640625 L 222.816406 370.929688 Z M -10.046875 138.066406 " clip-rule="nonzero"/></clipPath><clipPath id="8959776839"><path d="M 156.277344 7.804688 L 352.863281 204.394531 C 357.648438 209.175781 360.332031 215.660156 360.332031 222.425781 C 360.332031 229.1875 357.648438 235.671875 352.863281 240.457031 L 240.632812 352.6875 C 235.851562 357.46875 229.367188 360.15625 222.601562 360.15625 C 215.839844 360.15625 209.355469 357.46875 204.570312 352.6875 L 7.984375 156.097656 C 3.203125 151.316406 0.515625 144.828125 0.515625 138.066406 C 0.515625 131.304688 3.203125 124.816406 7.984375 120.035156 L 120.214844 7.804688 C 124.996094 3.023438 131.480469 0.335938 138.246094 0.335938 C 145.007812 0.335938 151.492188 3.023438 156.277344 7.804688 Z M 156.277344 7.804688 " clip-rule="nonzero"/></clipPath><clipPath id="ae33c948e7"><rect x="0" width="361" y="0" height="361"/></clipPath><clipPath id="a2646a257d"><path d="M 0 0 L 163 0 L 163 161.234375 L 0 161.234375 Z M 0 0 " clip-rule="nonzero"/></clipPath><clipPath id="1f90678221"><path d="M 25.5 0 L 137.058594 0 C 143.820312 0 150.304688 2.6875 155.089844 7.46875 C 159.871094 12.25 162.558594 18.738281 162.558594 25.5 L 162.558594 135.734375 C 162.558594 142.5 159.871094 148.984375 155.089844 153.765625 C 150.304688 158.546875 143.820312 161.234375 137.058594 161.234375 L 25.5 161.234375 C 18.738281 161.234375 12.25 158.546875 7.46875 153.765625 C 2.6875 148.984375 0 142.5 0 135.734375 L 0 25.5 C 0 18.738281 2.6875 12.25 7.46875 7.46875 C 12.25 2.6875 18.738281 0 25.5 0 Z M 25.5 0 " clip-rule="nonzero"/></clipPath><clipPath id="23fc650160"><path d="M 0 0 L 162.71875 0 L 162.71875 161.234375 L 0 161.234375 Z M 0 0 " clip-rule="nonzero"/></clipPath><clipPath id="ee75acde6c"><path d="M 25.5 0 L 137.058594 0 C 143.820312 0 150.304688 2.6875 155.089844 7.46875 C 159.871094 12.25 162.558594 18.738281 162.558594 25.5 L 162.558594 135.734375 C 162.558594 142.5 159.871094 148.984375 155.089844 153.765625 C 150.304688 158.546875 143.820312 161.234375 137.058594 161.234375 L 25.5 161.234375 C 18.738281 161.234375 12.25 158.546875 7.46875 153.765625 C 2.6875 148.984375 0 142.5 0 135.734375 L 0 25.5 C 0 18.738281 2.6875 12.25 7.46875 7.46875 C 12.25 2.6875 18.738281 0 25.5 0 Z M 25.5 0 " clip-rule="nonzero"/></clipPath><clipPath id="3ce1f22e81"><rect x="0" width="163" y="0" height="162"/></clipPath><clipPath id="a86e5659cf"><path d="M 37.5 37.5 L 92.640625 37.5 L 92.640625 92.640625 L 37.5 92.640625 Z M 37.5 37.5 " clip-rule="nonzero"/></clipPath><clipPath id="886eccd245"><path d="M 65.070312 37.5 C 49.84375 37.5 37.5 49.84375 37.5 65.070312 C 37.5 80.296875 49.84375 92.640625 65.070312 92.640625 C 80.296875 92.640625 92.640625 80.296875 92.640625 65.070312 C 92.640625 49.84375 80.296875 37.5 65.070312 37.5 Z M 65.070312 37.5 " clip-rule="nonzero"/></clipPath><clipPath id="1e9d06da08"><path d="M 0.5 0.5 L 55.640625 0.5 L 55.640625 55.640625 L 0.5 55.640625 Z M 0.5 0.5 " clip-rule="nonzero"/></clipPath><clipPath id="521c11bb44"><path d="M 28.070312 0.5 C 12.84375 0.5 0.5 12.84375 0.5 28.070312 C 0.5 43.296875 12.84375 55.640625 28.070312 55.640625 C 43.296875 55.640625 55.640625 43.296875 55.640625 28.070312 C 55.640625 12.84375 43.296875 0.5 28.070312 0.5 Z M 28.070312 0.5 " clip-rule="nonzero"/></clipPath><clipPath id="2e00fec3fa"><rect x="0" width="56" y="0" height="56"/></clipPath></defs><g clip-path="url(#b169a5a90b)"><g clip-path="url(#e09871f29a)"><g clip-path="url(#f0d13390c0)"><g transform="matrix(1, 0, 0, 1, 0.000000000000000056, 0)"><g clip-path="url(#ae33c948e7)"><g clip-path="url(#53cba241ce)"><g clip-path="url(#63c9852f25)"><g clip-path="url(#8959776839)"><path fill="#027e6f" d="M -10.046875 138.066406 L 138.246094 -10.226562 L 371.109375 222.640625 L 222.816406 370.929688 Z M -10.046875 138.066406 " fill-opacity="1" fill-rule="nonzero"/></g></g></g></g></g></g></g></g><g clip-path="url(#a2646a257d)"><g clip-path="url(#1f90678221)"><g transform="matrix(1, 0, 0, 1, 0, 0)"><g clip-path="url(#3ce1f22e81)"><g clip-path="url(#23fc650160)"><g clip-path="url(#ee75acde6c)"><path fill="#027e6f" d="M 0 0 L 162.496094 0 L 162.496094 161.234375 L 0 161.234375 Z M 0 0 " fill-opacity="1" fill-rule="nonzero"/></g></g></g></g></g></g><path stroke-linecap="round" transform="matrix(0.534806, -0.525816, 0.525816, 0.534806, 159.791142, 255.242767)" fill="none" stroke-linejoin="miter" d="M 37.503488 37.500136 L 309.885654 37.500649 " stroke="#ffffff" stroke-width="75" stroke-opacity="1" stroke-miterlimit="4"/><path stroke-linecap="round" transform="matrix(0.53033, 0.53033, -0.53033, 0.53033, 145.979774, 163.312225)" fill="none" stroke-linejoin="miter" d="M 37.499673 37.498363 L 135.967981 37.502046 " stroke="#ffffff" stroke-width="75" stroke-opacity="1" stroke-miterlimit="4"/><g clip-path="url(#a86e5659cf)"><g clip-path="url(#886eccd245)"><g transform="matrix(1, 0, 0, 1, 37, 37)"><g clip-path="url(#2e00fec3fa)"><g clip-path="url(#1e9d06da08)"><g clip-path="url(#521c11bb44)"><path fill="#ffffff" d="M 0.5 0.5 L 55.640625 0.5 L 55.640625 55.640625 L 0.5 55.640625 Z M 0.5 0.5 " fill-opacity="1" fill-rule="nonzero"/></g></g></g></g></g></g></svg>